<mxfile host="app.diagrams.net" modified="2024-04-15T08:31:24.326Z" agent="Mozilla/5.0 (Windows NT 10.0; Win64; x64) AppleWebKit/537.36 (KHTML, like Gecko) Chrome/123.0.0.0 Safari/537.36" etag="GcRG0lNuH-QReQ8eDudc" version="24.2.5" type="device">
  <diagram name="Chap1" id="8MCwnKJL2M6YkBLwLRT3">
    <mxGraphModel dx="956" dy="515" grid="1" gridSize="10" guides="1" tooltips="1" connect="1" arrows="1" fold="1" page="1" pageScale="1" pageWidth="850" pageHeight="1100" background="none" math="0" shadow="0">
      <root>
        <mxCell id="0" />
        <mxCell id="1" parent="0" />
        <mxCell id="ya-5Tr0PbeGaKO2rcUKc-279" value="" style="endArrow=none;dashed=1;html=1;strokeWidth=2;rounded=0;" edge="1" parent="1">
          <mxGeometry width="50" height="50" relative="1" as="geometry">
            <mxPoint x="363" y="3100" as="sourcePoint" />
            <mxPoint x="413" y="3100" as="targetPoint" />
          </mxGeometry>
        </mxCell>
        <mxCell id="i99JaRZohKiQuhW2JAXG-102" value="" style="strokeWidth=2;html=1;shape=mxgraph.flowchart.direct_data;whiteSpace=wrap;labelBackgroundColor=none;fillColor=#808080;fontSize=14;" parent="1" vertex="1">
          <mxGeometry x="1560" y="860" width="20" height="50" as="geometry" />
        </mxCell>
        <mxCell id="i99JaRZohKiQuhW2JAXG-124" value="exon 1" style="strokeWidth=2;html=1;shape=mxgraph.flowchart.direct_data;whiteSpace=wrap;labelBackgroundColor=none;fontSize=14;" parent="1" vertex="1">
          <mxGeometry x="1295.5" y="710" width="110" height="50" as="geometry" />
        </mxCell>
        <mxCell id="i99JaRZohKiQuhW2JAXG-73" value="exon 3" style="strokeWidth=2;html=1;shape=mxgraph.flowchart.direct_data;whiteSpace=wrap;labelBackgroundColor=none;fontSize=14;" parent="1" vertex="1">
          <mxGeometry x="1575" y="860" width="70" height="50" as="geometry" />
        </mxCell>
        <mxCell id="i99JaRZohKiQuhW2JAXG-83" value="exon 2" style="strokeWidth=2;html=1;shape=mxgraph.flowchart.direct_data;whiteSpace=wrap;labelBackgroundColor=none;fontSize=14;" parent="1" vertex="1">
          <mxGeometry x="1386" y="710" width="140" height="50" as="geometry" />
        </mxCell>
        <mxCell id="i99JaRZohKiQuhW2JAXG-91" value="exon 3" style="strokeWidth=2;html=1;shape=mxgraph.flowchart.direct_data;whiteSpace=wrap;labelBackgroundColor=none;fontSize=14;align=center;" parent="1" vertex="1">
          <mxGeometry x="1502" y="710" width="68" height="50" as="geometry" />
        </mxCell>
        <mxCell id="i99JaRZohKiQuhW2JAXG-2" value="exon 1" style="strokeWidth=2;html=1;shape=mxgraph.flowchart.direct_data;whiteSpace=wrap;labelBackgroundColor=none;fontSize=14;" parent="1" vertex="1">
          <mxGeometry x="270" y="260" width="110" height="50" as="geometry" />
        </mxCell>
        <mxCell id="i99JaRZohKiQuhW2JAXG-3" value="exon 2" style="strokeWidth=2;html=1;shape=mxgraph.flowchart.direct_data;whiteSpace=wrap;labelBackgroundColor=none;fontSize=14;" parent="1" vertex="1">
          <mxGeometry x="410" y="260" width="140" height="50" as="geometry" />
        </mxCell>
        <mxCell id="i99JaRZohKiQuhW2JAXG-4" value="exon 3" style="strokeWidth=2;html=1;shape=mxgraph.flowchart.direct_data;whiteSpace=wrap;labelBackgroundColor=none;fontSize=14;" parent="1" vertex="1">
          <mxGeometry x="650" y="260" width="80" height="50" as="geometry" />
        </mxCell>
        <mxCell id="i99JaRZohKiQuhW2JAXG-5" value="" style="endArrow=none;html=1;rounded=0;strokeWidth=5;labelBackgroundColor=none;fontColor=default;fontSize=14;" parent="1" target="i99JaRZohKiQuhW2JAXG-3" edge="1">
          <mxGeometry width="50" height="50" relative="1" as="geometry">
            <mxPoint x="370" y="283" as="sourcePoint" />
            <mxPoint x="410" y="285.1052631578948" as="targetPoint" />
          </mxGeometry>
        </mxCell>
        <mxCell id="i99JaRZohKiQuhW2JAXG-6" value="" style="endArrow=none;html=1;rounded=0;strokeWidth=5;entryX=0;entryY=0.5;entryDx=0;entryDy=0;entryPerimeter=0;labelBackgroundColor=none;fontColor=default;fontSize=14;" parent="1" target="i99JaRZohKiQuhW2JAXG-4" edge="1">
          <mxGeometry width="50" height="50" relative="1" as="geometry">
            <mxPoint x="540" y="285" as="sourcePoint" />
            <mxPoint x="550" y="285.5" as="targetPoint" />
          </mxGeometry>
        </mxCell>
        <mxCell id="i99JaRZohKiQuhW2JAXG-14" value="exon 1" style="strokeWidth=2;html=1;shape=mxgraph.flowchart.direct_data;whiteSpace=wrap;labelBackgroundColor=none;fontSize=14;" parent="1" vertex="1">
          <mxGeometry x="398" y="400" width="110" height="50" as="geometry" />
        </mxCell>
        <mxCell id="i99JaRZohKiQuhW2JAXG-16" value="exon 3" style="strokeWidth=2;html=1;shape=mxgraph.flowchart.direct_data;whiteSpace=wrap;labelBackgroundColor=none;fontSize=14;" parent="1" vertex="1">
          <mxGeometry x="490" y="400" width="80" height="50" as="geometry" />
        </mxCell>
        <mxCell id="i99JaRZohKiQuhW2JAXG-21" value="" style="endArrow=none;html=1;rounded=0;entryX=0.08;entryY=1;entryDx=0;entryDy=0;entryPerimeter=0;exitX=0.08;exitY=0;exitDx=0;exitDy=0;exitPerimeter=0;curved=0;labelBackgroundColor=none;fontColor=default;dashed=1;fontSize=14;" parent="1" source="i99JaRZohKiQuhW2JAXG-14" target="i99JaRZohKiQuhW2JAXG-2" edge="1">
          <mxGeometry width="50" height="50" relative="1" as="geometry">
            <mxPoint x="420" y="400" as="sourcePoint" />
            <mxPoint x="470" y="350" as="targetPoint" />
          </mxGeometry>
        </mxCell>
        <mxCell id="i99JaRZohKiQuhW2JAXG-22" value="" style="endArrow=none;html=1;rounded=0;entryX=0.855;entryY=0.96;entryDx=0;entryDy=0;entryPerimeter=0;exitX=0.91;exitY=0;exitDx=0;exitDy=0;exitPerimeter=0;labelBackgroundColor=none;fontColor=default;dashed=1;fontSize=14;" parent="1" source="i99JaRZohKiQuhW2JAXG-14" target="i99JaRZohKiQuhW2JAXG-2" edge="1">
          <mxGeometry width="50" height="50" relative="1" as="geometry">
            <mxPoint x="420" y="400" as="sourcePoint" />
            <mxPoint x="470" y="350" as="targetPoint" />
          </mxGeometry>
        </mxCell>
        <mxCell id="i99JaRZohKiQuhW2JAXG-23" value="" style="endArrow=none;html=1;rounded=0;entryX=0.08;entryY=1;entryDx=0;entryDy=0;entryPerimeter=0;exitX=0.08;exitY=0;exitDx=0;exitDy=0;exitPerimeter=0;labelBackgroundColor=none;fontColor=default;dashed=1;fontSize=14;" parent="1" source="i99JaRZohKiQuhW2JAXG-16" target="i99JaRZohKiQuhW2JAXG-4" edge="1">
          <mxGeometry width="50" height="50" relative="1" as="geometry">
            <mxPoint x="429" y="380" as="sourcePoint" />
            <mxPoint x="289" y="320" as="targetPoint" />
          </mxGeometry>
        </mxCell>
        <mxCell id="i99JaRZohKiQuhW2JAXG-24" value="" style="endArrow=none;html=1;rounded=0;entryX=0.91;entryY=1;entryDx=0;entryDy=0;entryPerimeter=0;exitX=0.91;exitY=0;exitDx=0;exitDy=0;exitPerimeter=0;labelBackgroundColor=none;fontColor=default;dashed=1;fontSize=14;" parent="1" source="i99JaRZohKiQuhW2JAXG-16" target="i99JaRZohKiQuhW2JAXG-4" edge="1">
          <mxGeometry width="50" height="50" relative="1" as="geometry">
            <mxPoint x="439" y="390" as="sourcePoint" />
            <mxPoint x="299" y="330" as="targetPoint" />
          </mxGeometry>
        </mxCell>
        <mxCell id="i99JaRZohKiQuhW2JAXG-25" value="exon 1" style="strokeWidth=2;html=1;shape=mxgraph.flowchart.direct_data;whiteSpace=wrap;labelBackgroundColor=none;fontSize=14;" parent="1" vertex="1">
          <mxGeometry x="340" y="860" width="110" height="50" as="geometry" />
        </mxCell>
        <mxCell id="i99JaRZohKiQuhW2JAXG-26" value="exon 2" style="strokeWidth=2;html=1;shape=mxgraph.flowchart.direct_data;whiteSpace=wrap;labelBackgroundColor=none;fontSize=14;" parent="1" vertex="1">
          <mxGeometry x="480" y="860" width="140" height="50" as="geometry" />
        </mxCell>
        <mxCell id="i99JaRZohKiQuhW2JAXG-27" value="exon 3" style="strokeWidth=2;html=1;shape=mxgraph.flowchart.direct_data;whiteSpace=wrap;labelBackgroundColor=none;fontSize=14;" parent="1" vertex="1">
          <mxGeometry x="720" y="860" width="80" height="50" as="geometry" />
        </mxCell>
        <mxCell id="i99JaRZohKiQuhW2JAXG-28" value="" style="endArrow=none;html=1;rounded=0;strokeWidth=5;labelBackgroundColor=none;fontColor=default;fontSize=14;" parent="1" target="i99JaRZohKiQuhW2JAXG-26" edge="1">
          <mxGeometry width="50" height="50" relative="1" as="geometry">
            <mxPoint x="440" y="883" as="sourcePoint" />
            <mxPoint x="480" y="885.1052631578948" as="targetPoint" />
          </mxGeometry>
        </mxCell>
        <mxCell id="i99JaRZohKiQuhW2JAXG-29" value="" style="endArrow=none;html=1;rounded=0;strokeWidth=5;entryX=0;entryY=0.5;entryDx=0;entryDy=0;entryPerimeter=0;labelBackgroundColor=none;fontColor=default;fontSize=14;" parent="1" target="i99JaRZohKiQuhW2JAXG-27" edge="1">
          <mxGeometry width="50" height="50" relative="1" as="geometry">
            <mxPoint x="610" y="885" as="sourcePoint" />
            <mxPoint x="620" y="885.5" as="targetPoint" />
          </mxGeometry>
        </mxCell>
        <mxCell id="i99JaRZohKiQuhW2JAXG-30" value="exon 1" style="strokeWidth=2;html=1;shape=mxgraph.flowchart.direct_data;whiteSpace=wrap;labelBackgroundColor=none;fontSize=14;" parent="1" vertex="1">
          <mxGeometry x="465" y="1000" width="110" height="50" as="geometry" />
        </mxCell>
        <mxCell id="i99JaRZohKiQuhW2JAXG-31" value="exon 3" style="strokeWidth=2;html=1;shape=mxgraph.flowchart.direct_data;whiteSpace=wrap;labelBackgroundColor=none;fontSize=14;" parent="1" vertex="1">
          <mxGeometry x="557" y="1000" width="80" height="50" as="geometry" />
        </mxCell>
        <mxCell id="i99JaRZohKiQuhW2JAXG-32" value="" style="endArrow=none;html=1;rounded=0;entryX=0.08;entryY=1;entryDx=0;entryDy=0;entryPerimeter=0;exitX=0.08;exitY=0;exitDx=0;exitDy=0;exitPerimeter=0;curved=0;labelBackgroundColor=none;fontColor=default;dashed=1;strokeWidth=1;fontSize=14;" parent="1" source="i99JaRZohKiQuhW2JAXG-30" target="i99JaRZohKiQuhW2JAXG-25" edge="1">
          <mxGeometry width="50" height="50" relative="1" as="geometry">
            <mxPoint x="490" y="1000" as="sourcePoint" />
            <mxPoint x="540" y="950" as="targetPoint" />
          </mxGeometry>
        </mxCell>
        <mxCell id="i99JaRZohKiQuhW2JAXG-33" value="" style="endArrow=none;html=1;rounded=0;entryX=0.855;entryY=0.96;entryDx=0;entryDy=0;entryPerimeter=0;exitX=0.91;exitY=0;exitDx=0;exitDy=0;exitPerimeter=0;labelBackgroundColor=none;fontColor=default;dashed=1;strokeWidth=1;fontSize=14;" parent="1" source="i99JaRZohKiQuhW2JAXG-30" target="i99JaRZohKiQuhW2JAXG-25" edge="1">
          <mxGeometry width="50" height="50" relative="1" as="geometry">
            <mxPoint x="490" y="1000" as="sourcePoint" />
            <mxPoint x="540" y="950" as="targetPoint" />
          </mxGeometry>
        </mxCell>
        <mxCell id="i99JaRZohKiQuhW2JAXG-34" value="" style="endArrow=none;html=1;rounded=0;entryX=0.08;entryY=1;entryDx=0;entryDy=0;entryPerimeter=0;exitX=0.08;exitY=0;exitDx=0;exitDy=0;exitPerimeter=0;labelBackgroundColor=none;fontColor=default;dashed=1;strokeWidth=1;fontSize=14;" parent="1" source="i99JaRZohKiQuhW2JAXG-31" target="i99JaRZohKiQuhW2JAXG-27" edge="1">
          <mxGeometry width="50" height="50" relative="1" as="geometry">
            <mxPoint x="499" y="980" as="sourcePoint" />
            <mxPoint x="359" y="920" as="targetPoint" />
          </mxGeometry>
        </mxCell>
        <mxCell id="i99JaRZohKiQuhW2JAXG-35" value="" style="endArrow=none;html=1;rounded=0;entryX=0.91;entryY=1;entryDx=0;entryDy=0;entryPerimeter=0;exitX=0.91;exitY=0;exitDx=0;exitDy=0;exitPerimeter=0;labelBackgroundColor=none;fontColor=default;dashed=1;strokeWidth=1;fontSize=14;" parent="1" source="i99JaRZohKiQuhW2JAXG-31" target="i99JaRZohKiQuhW2JAXG-27" edge="1">
          <mxGeometry width="50" height="50" relative="1" as="geometry">
            <mxPoint x="509" y="990" as="sourcePoint" />
            <mxPoint x="369" y="930" as="targetPoint" />
          </mxGeometry>
        </mxCell>
        <mxCell id="i99JaRZohKiQuhW2JAXG-36" value="exon 1" style="strokeWidth=2;html=1;shape=mxgraph.flowchart.direct_data;whiteSpace=wrap;labelBackgroundColor=none;fontSize=14;" parent="1" vertex="1">
          <mxGeometry x="465" y="710" width="110" height="50" as="geometry" />
        </mxCell>
        <mxCell id="i99JaRZohKiQuhW2JAXG-37" value="exon 2" style="strokeWidth=2;html=1;shape=mxgraph.flowchart.direct_data;whiteSpace=wrap;labelBackgroundColor=none;fontSize=14;" parent="1" vertex="1">
          <mxGeometry x="556" y="710" width="140" height="50" as="geometry" />
        </mxCell>
        <mxCell id="i99JaRZohKiQuhW2JAXG-38" value="" style="endArrow=none;html=1;rounded=0;entryX=0.08;entryY=1;entryDx=0;entryDy=0;entryPerimeter=0;exitX=0.08;exitY=0;exitDx=0;exitDy=0;exitPerimeter=0;labelBackgroundColor=none;fontColor=default;strokeWidth=1;dashed=1;fontSize=14;" parent="1" source="i99JaRZohKiQuhW2JAXG-25" target="i99JaRZohKiQuhW2JAXG-36" edge="1">
          <mxGeometry width="50" height="50" relative="1" as="geometry">
            <mxPoint x="575" y="1010" as="sourcePoint" />
            <mxPoint x="444" y="918" as="targetPoint" />
          </mxGeometry>
        </mxCell>
        <mxCell id="i99JaRZohKiQuhW2JAXG-39" value="" style="endArrow=none;html=1;rounded=0;entryX=0.91;entryY=1;entryDx=0;entryDy=0;entryPerimeter=0;exitX=0.91;exitY=0;exitDx=0;exitDy=0;exitPerimeter=0;labelBackgroundColor=none;fontColor=default;strokeWidth=1;dashed=1;fontSize=14;" parent="1" source="i99JaRZohKiQuhW2JAXG-25" target="i99JaRZohKiQuhW2JAXG-36" edge="1">
          <mxGeometry width="50" height="50" relative="1" as="geometry">
            <mxPoint x="585" y="1020" as="sourcePoint" />
            <mxPoint x="454" y="928" as="targetPoint" />
          </mxGeometry>
        </mxCell>
        <mxCell id="i99JaRZohKiQuhW2JAXG-40" value="" style="endArrow=none;html=1;rounded=0;entryX=0.08;entryY=1;entryDx=0;entryDy=0;entryPerimeter=0;exitX=0.08;exitY=0;exitDx=0;exitDy=0;exitPerimeter=0;labelBackgroundColor=none;fontColor=default;dashed=1;strokeWidth=1;fontSize=14;" parent="1" source="i99JaRZohKiQuhW2JAXG-26" target="i99JaRZohKiQuhW2JAXG-37" edge="1">
          <mxGeometry width="50" height="50" relative="1" as="geometry">
            <mxPoint x="595" y="1030" as="sourcePoint" />
            <mxPoint x="464" y="938" as="targetPoint" />
          </mxGeometry>
        </mxCell>
        <mxCell id="i99JaRZohKiQuhW2JAXG-41" value="" style="endArrow=none;html=1;rounded=0;entryX=0.91;entryY=1;entryDx=0;entryDy=0;entryPerimeter=0;exitX=0.91;exitY=0;exitDx=0;exitDy=0;exitPerimeter=0;labelBackgroundColor=none;fontColor=default;dashed=1;strokeWidth=1;fontSize=14;" parent="1" source="i99JaRZohKiQuhW2JAXG-26" target="i99JaRZohKiQuhW2JAXG-37" edge="1">
          <mxGeometry width="50" height="50" relative="1" as="geometry">
            <mxPoint x="605" y="1040" as="sourcePoint" />
            <mxPoint x="474" y="948" as="targetPoint" />
          </mxGeometry>
        </mxCell>
        <mxCell id="i99JaRZohKiQuhW2JAXG-42" value="&lt;font style=&quot;font-size: 14px;&quot; face=&quot;Verdana&quot;&gt;transcrit 1&lt;/font&gt;" style="text;html=1;align=center;verticalAlign=middle;whiteSpace=wrap;rounded=0;fontSize=14;" parent="1" vertex="1">
          <mxGeometry x="370" y="720" width="75" height="30" as="geometry" />
        </mxCell>
        <mxCell id="i99JaRZohKiQuhW2JAXG-43" value="&lt;font style=&quot;font-size: 14px;&quot; face=&quot;Verdana&quot;&gt;transcrit 2&lt;/font&gt;" style="text;html=1;align=center;verticalAlign=middle;whiteSpace=wrap;rounded=0;fontSize=14;" parent="1" vertex="1">
          <mxGeometry x="370" y="1010" width="75" height="30" as="geometry" />
        </mxCell>
        <mxCell id="i99JaRZohKiQuhW2JAXG-44" value="&lt;font style=&quot;font-size: 14px;&quot; face=&quot;Verdana&quot;&gt;gêne&lt;/font&gt;" style="text;html=1;align=center;verticalAlign=middle;whiteSpace=wrap;rounded=0;fontSize=14;" parent="1" vertex="1">
          <mxGeometry x="260" y="870" width="75" height="30" as="geometry" />
        </mxCell>
        <mxCell id="i99JaRZohKiQuhW2JAXG-45" value="&lt;font style=&quot;font-size: 14px;&quot; face=&quot;Verdana&quot;&gt;gêne&lt;/font&gt;" style="text;html=1;align=center;verticalAlign=middle;whiteSpace=wrap;rounded=0;fontSize=14;" parent="1" vertex="1">
          <mxGeometry x="190" y="270" width="75" height="30" as="geometry" />
        </mxCell>
        <mxCell id="i99JaRZohKiQuhW2JAXG-46" value="&lt;font style=&quot;font-size: 14px;&quot; face=&quot;Verdana&quot;&gt;transcrit 1&lt;/font&gt;" style="text;html=1;align=center;verticalAlign=middle;whiteSpace=wrap;rounded=0;fontSize=14;" parent="1" vertex="1">
          <mxGeometry x="250" y="120" width="75" height="30" as="geometry" />
        </mxCell>
        <mxCell id="i99JaRZohKiQuhW2JAXG-47" value="exon 1" style="strokeWidth=2;html=1;shape=mxgraph.flowchart.direct_data;whiteSpace=wrap;labelBackgroundColor=none;fontSize=14;" parent="1" vertex="1">
          <mxGeometry x="1070" y="260" width="110" height="50" as="geometry" />
        </mxCell>
        <mxCell id="i99JaRZohKiQuhW2JAXG-48" value="exon 2" style="strokeWidth=2;html=1;shape=mxgraph.flowchart.direct_data;whiteSpace=wrap;labelBackgroundColor=none;fontSize=14;" parent="1" vertex="1">
          <mxGeometry x="1210" y="260" width="140" height="50" as="geometry" />
        </mxCell>
        <mxCell id="i99JaRZohKiQuhW2JAXG-49" value="exon 3" style="strokeWidth=2;html=1;shape=mxgraph.flowchart.direct_data;whiteSpace=wrap;labelBackgroundColor=none;fontSize=14;" parent="1" vertex="1">
          <mxGeometry x="1450" y="260" width="80" height="50" as="geometry" />
        </mxCell>
        <mxCell id="i99JaRZohKiQuhW2JAXG-50" value="" style="endArrow=none;html=1;rounded=0;strokeWidth=5;labelBackgroundColor=none;fontColor=default;fontSize=14;" parent="1" target="i99JaRZohKiQuhW2JAXG-48" edge="1">
          <mxGeometry width="50" height="50" relative="1" as="geometry">
            <mxPoint x="1170" y="283" as="sourcePoint" />
            <mxPoint x="1210" y="285.1052631578948" as="targetPoint" />
          </mxGeometry>
        </mxCell>
        <mxCell id="i99JaRZohKiQuhW2JAXG-51" value="" style="endArrow=none;html=1;rounded=0;strokeWidth=5;entryX=0;entryY=0.5;entryDx=0;entryDy=0;entryPerimeter=0;labelBackgroundColor=none;fontColor=default;fontSize=14;" parent="1" target="i99JaRZohKiQuhW2JAXG-49" edge="1">
          <mxGeometry width="50" height="50" relative="1" as="geometry">
            <mxPoint x="1340" y="285" as="sourcePoint" />
            <mxPoint x="1350" y="285.5" as="targetPoint" />
          </mxGeometry>
        </mxCell>
        <mxCell id="i99JaRZohKiQuhW2JAXG-58" value="exon 1" style="strokeWidth=2;html=1;shape=mxgraph.flowchart.direct_data;whiteSpace=wrap;labelBackgroundColor=none;fontSize=14;" parent="1" vertex="1">
          <mxGeometry x="1210" y="110" width="110" height="50" as="geometry" />
        </mxCell>
        <mxCell id="i99JaRZohKiQuhW2JAXG-59" value="exon 2" style="strokeWidth=2;html=1;shape=mxgraph.flowchart.direct_data;whiteSpace=wrap;labelBackgroundColor=none;fontSize=14;" parent="1" vertex="1">
          <mxGeometry x="1350" y="110" width="140" height="50" as="geometry" />
        </mxCell>
        <mxCell id="i99JaRZohKiQuhW2JAXG-60" value="" style="endArrow=none;html=1;rounded=0;entryX=0.08;entryY=1;entryDx=0;entryDy=0;entryPerimeter=0;exitX=0.08;exitY=0;exitDx=0;exitDy=0;exitPerimeter=0;labelBackgroundColor=none;fontColor=default;strokeWidth=1;dashed=1;fontSize=14;" parent="1" source="i99JaRZohKiQuhW2JAXG-47" target="i99JaRZohKiQuhW2JAXG-58" edge="1">
          <mxGeometry width="50" height="50" relative="1" as="geometry">
            <mxPoint x="1305" y="400" as="sourcePoint" />
            <mxPoint x="1174" y="308" as="targetPoint" />
          </mxGeometry>
        </mxCell>
        <mxCell id="i99JaRZohKiQuhW2JAXG-61" value="" style="endArrow=none;html=1;rounded=0;entryX=0.91;entryY=1;entryDx=0;entryDy=0;entryPerimeter=0;exitX=0.91;exitY=0;exitDx=0;exitDy=0;exitPerimeter=0;labelBackgroundColor=none;fontColor=default;strokeWidth=1;dashed=1;fontSize=14;" parent="1" source="i99JaRZohKiQuhW2JAXG-47" target="i99JaRZohKiQuhW2JAXG-58" edge="1">
          <mxGeometry width="50" height="50" relative="1" as="geometry">
            <mxPoint x="1315" y="410" as="sourcePoint" />
            <mxPoint x="1184" y="318" as="targetPoint" />
          </mxGeometry>
        </mxCell>
        <mxCell id="i99JaRZohKiQuhW2JAXG-62" value="" style="endArrow=none;html=1;rounded=0;entryX=0.08;entryY=1;entryDx=0;entryDy=0;entryPerimeter=0;exitX=0.08;exitY=0;exitDx=0;exitDy=0;exitPerimeter=0;labelBackgroundColor=none;fontColor=default;dashed=1;strokeWidth=1;fontSize=14;" parent="1" source="i99JaRZohKiQuhW2JAXG-48" target="i99JaRZohKiQuhW2JAXG-59" edge="1">
          <mxGeometry width="50" height="50" relative="1" as="geometry">
            <mxPoint x="1325" y="420" as="sourcePoint" />
            <mxPoint x="1194" y="328" as="targetPoint" />
          </mxGeometry>
        </mxCell>
        <mxCell id="i99JaRZohKiQuhW2JAXG-63" value="" style="endArrow=none;html=1;rounded=0;entryX=0.91;entryY=1;entryDx=0;entryDy=0;entryPerimeter=0;exitX=0.91;exitY=0;exitDx=0;exitDy=0;exitPerimeter=0;labelBackgroundColor=none;fontColor=default;dashed=1;strokeWidth=1;fontSize=14;" parent="1" source="i99JaRZohKiQuhW2JAXG-48" target="i99JaRZohKiQuhW2JAXG-59" edge="1">
          <mxGeometry width="50" height="50" relative="1" as="geometry">
            <mxPoint x="1335" y="430" as="sourcePoint" />
            <mxPoint x="1204" y="338" as="targetPoint" />
          </mxGeometry>
        </mxCell>
        <mxCell id="i99JaRZohKiQuhW2JAXG-64" value="&lt;font style=&quot;font-size: 14px;&quot; face=&quot;Verdana&quot;&gt;transcrit 1&lt;/font&gt;" style="text;html=1;align=center;verticalAlign=middle;whiteSpace=wrap;rounded=0;fontSize=14;" parent="1" vertex="1">
          <mxGeometry x="1115" y="120" width="75" height="30" as="geometry" />
        </mxCell>
        <mxCell id="i99JaRZohKiQuhW2JAXG-66" value="&lt;font style=&quot;font-size: 14px;&quot; face=&quot;Verdana&quot;&gt;gêne&lt;/font&gt;" style="text;html=1;align=center;verticalAlign=middle;whiteSpace=wrap;rounded=0;fontSize=14;" parent="1" vertex="1">
          <mxGeometry x="990" y="270" width="75" height="30" as="geometry" />
        </mxCell>
        <mxCell id="i99JaRZohKiQuhW2JAXG-67" value="" style="endArrow=none;html=1;rounded=0;strokeWidth=5;labelBackgroundColor=none;fontColor=default;fontSize=14;" parent="1" target="i99JaRZohKiQuhW2JAXG-59" edge="1">
          <mxGeometry width="50" height="50" relative="1" as="geometry">
            <mxPoint x="1308" y="134.5" as="sourcePoint" />
            <mxPoint x="1348" y="135.5" as="targetPoint" />
          </mxGeometry>
        </mxCell>
        <mxCell id="i99JaRZohKiQuhW2JAXG-72" value="exon 2" style="strokeWidth=2;html=1;shape=mxgraph.flowchart.direct_data;whiteSpace=wrap;labelBackgroundColor=none;fontSize=14;" parent="1" vertex="1">
          <mxGeometry x="1320" y="860" width="140" height="50" as="geometry" />
        </mxCell>
        <mxCell id="i99JaRZohKiQuhW2JAXG-76" value="exon 1" style="strokeWidth=2;html=1;shape=mxgraph.flowchart.direct_data;whiteSpace=wrap;labelBackgroundColor=none;fontSize=14;" parent="1" vertex="1">
          <mxGeometry x="1286" y="1000" width="75" height="50" as="geometry" />
        </mxCell>
        <mxCell id="i99JaRZohKiQuhW2JAXG-78" value="" style="endArrow=none;html=1;rounded=0;entryX=0.08;entryY=1;entryDx=0;entryDy=0;entryPerimeter=0;exitX=0.08;exitY=0;exitDx=0;exitDy=0;exitPerimeter=0;curved=0;labelBackgroundColor=none;fontColor=default;dashed=1;strokeWidth=1;fontSize=14;" parent="1" source="i99JaRZohKiQuhW2JAXG-76" target="i99JaRZohKiQuhW2JAXG-71" edge="1">
          <mxGeometry width="50" height="50" relative="1" as="geometry">
            <mxPoint x="1330" y="960" as="sourcePoint" />
            <mxPoint x="1380" y="910" as="targetPoint" />
          </mxGeometry>
        </mxCell>
        <mxCell id="i99JaRZohKiQuhW2JAXG-79" value="" style="endArrow=none;html=1;rounded=0;entryX=0.91;entryY=1;entryDx=0;entryDy=0;entryPerimeter=0;labelBackgroundColor=none;fontColor=default;dashed=1;strokeWidth=1;exitX=0.91;exitY=0;exitDx=0;exitDy=0;exitPerimeter=0;fontSize=14;" parent="1" source="i99JaRZohKiQuhW2JAXG-76" target="i99JaRZohKiQuhW2JAXG-71" edge="1">
          <mxGeometry width="50" height="50" relative="1" as="geometry">
            <mxPoint x="1320" y="950" as="sourcePoint" />
            <mxPoint x="1380" y="910" as="targetPoint" />
          </mxGeometry>
        </mxCell>
        <mxCell id="i99JaRZohKiQuhW2JAXG-80" value="" style="endArrow=none;html=1;rounded=0;entryX=0.08;entryY=1;entryDx=0;entryDy=0;entryPerimeter=0;exitX=0.08;exitY=0;exitDx=0;exitDy=0;exitPerimeter=0;labelBackgroundColor=none;fontColor=default;dashed=1;strokeWidth=1;fontSize=14;" parent="1" source="i99JaRZohKiQuhW2JAXG-77" target="i99JaRZohKiQuhW2JAXG-102" edge="1">
          <mxGeometry width="50" height="50" relative="1" as="geometry">
            <mxPoint x="1339" y="940" as="sourcePoint" />
            <mxPoint x="1199" y="880" as="targetPoint" />
          </mxGeometry>
        </mxCell>
        <mxCell id="i99JaRZohKiQuhW2JAXG-81" value="" style="endArrow=none;html=1;rounded=0;entryX=0.91;entryY=1;entryDx=0;entryDy=0;entryPerimeter=0;exitX=0.91;exitY=0;exitDx=0;exitDy=0;exitPerimeter=0;labelBackgroundColor=none;fontColor=default;dashed=1;strokeWidth=1;fontSize=14;" parent="1" source="i99JaRZohKiQuhW2JAXG-77" target="i99JaRZohKiQuhW2JAXG-73" edge="1">
          <mxGeometry width="50" height="50" relative="1" as="geometry">
            <mxPoint x="1349" y="950" as="sourcePoint" />
            <mxPoint x="1209" y="890" as="targetPoint" />
          </mxGeometry>
        </mxCell>
        <mxCell id="i99JaRZohKiQuhW2JAXG-86" value="" style="endArrow=none;html=1;rounded=0;entryX=0.08;entryY=1;entryDx=0;entryDy=0;entryPerimeter=0;exitX=0.08;exitY=0;exitDx=0;exitDy=0;exitPerimeter=0;labelBackgroundColor=none;fontColor=default;dashed=1;strokeWidth=1;fontSize=14;" parent="1" source="i99JaRZohKiQuhW2JAXG-72" target="i99JaRZohKiQuhW2JAXG-83" edge="1">
          <mxGeometry width="50" height="50" relative="1" as="geometry">
            <mxPoint x="1435" y="990" as="sourcePoint" />
            <mxPoint x="1304" y="898" as="targetPoint" />
          </mxGeometry>
        </mxCell>
        <mxCell id="i99JaRZohKiQuhW2JAXG-88" value="&lt;font style=&quot;font-size: 14px;&quot; face=&quot;Verdana&quot;&gt;transcrit 1&lt;/font&gt;" style="text;html=1;align=center;verticalAlign=middle;whiteSpace=wrap;rounded=0;fontSize=14;" parent="1" vertex="1">
          <mxGeometry x="1200" y="720" width="75" height="30" as="geometry" />
        </mxCell>
        <mxCell id="i99JaRZohKiQuhW2JAXG-89" value="&lt;font style=&quot;font-size: 14px;&quot; face=&quot;Verdana&quot;&gt;transcrit 2&lt;/font&gt;" style="text;html=1;align=center;verticalAlign=middle;whiteSpace=wrap;rounded=0;fontSize=14;" parent="1" vertex="1">
          <mxGeometry x="1200" y="1010" width="75" height="30" as="geometry" />
        </mxCell>
        <mxCell id="i99JaRZohKiQuhW2JAXG-90" value="&lt;font style=&quot;font-size: 14px;&quot; face=&quot;Verdana&quot;&gt;gêne&lt;/font&gt;" style="text;html=1;align=center;verticalAlign=middle;whiteSpace=wrap;rounded=0;fontSize=14;" parent="1" vertex="1">
          <mxGeometry x="1105" y="870" width="75" height="30" as="geometry" />
        </mxCell>
        <mxCell id="i99JaRZohKiQuhW2JAXG-93" value="" style="endArrow=none;html=1;rounded=0;labelBackgroundColor=none;fontColor=default;dashed=1;strokeWidth=1;entryX=0.91;entryY=1;entryDx=0;entryDy=0;entryPerimeter=0;exitX=0.91;exitY=0;exitDx=0;exitDy=0;exitPerimeter=0;fontSize=14;" parent="1" source="i99JaRZohKiQuhW2JAXG-72" target="i99JaRZohKiQuhW2JAXG-83" edge="1">
          <mxGeometry width="50" height="50" relative="1" as="geometry">
            <mxPoint x="1478" y="840" as="sourcePoint" />
            <mxPoint x="1528.5" y="710" as="targetPoint" />
          </mxGeometry>
        </mxCell>
        <mxCell id="i99JaRZohKiQuhW2JAXG-95" value="" style="endArrow=none;html=1;rounded=0;entryX=0.08;entryY=1;entryDx=0;entryDy=0;entryPerimeter=0;exitX=0.91;exitY=0;exitDx=0;exitDy=0;exitPerimeter=0;labelBackgroundColor=none;fontColor=default;dashed=1;strokeWidth=1;fontSize=14;" parent="1" source="i99JaRZohKiQuhW2JAXG-102" target="i99JaRZohKiQuhW2JAXG-91" edge="1">
          <mxGeometry width="50" height="50" relative="1" as="geometry">
            <mxPoint x="1416" y="970" as="sourcePoint" />
            <mxPoint x="1576" y="880" as="targetPoint" />
          </mxGeometry>
        </mxCell>
        <mxCell id="i99JaRZohKiQuhW2JAXG-96" value="" style="endArrow=none;html=1;rounded=0;entryX=0.91;entryY=1;entryDx=0;entryDy=0;entryPerimeter=0;labelBackgroundColor=none;fontColor=default;dashed=1;strokeWidth=1;exitX=0.91;exitY=0;exitDx=0;exitDy=0;exitPerimeter=0;fontSize=14;" parent="1" source="i99JaRZohKiQuhW2JAXG-73" target="i99JaRZohKiQuhW2JAXG-91" edge="1">
          <mxGeometry width="50" height="50" relative="1" as="geometry">
            <mxPoint x="1630" y="860" as="sourcePoint" />
            <mxPoint x="1586" y="890" as="targetPoint" />
          </mxGeometry>
        </mxCell>
        <mxCell id="i99JaRZohKiQuhW2JAXG-97" value="exon 2" style="strokeWidth=2;html=1;shape=mxgraph.flowchart.direct_data;whiteSpace=wrap;labelBackgroundColor=none;fontSize=14;" parent="1" vertex="1">
          <mxGeometry x="1346" y="1000" width="140" height="50" as="geometry" />
        </mxCell>
        <mxCell id="i99JaRZohKiQuhW2JAXG-77" value="exon 3" style="strokeWidth=2;html=1;shape=mxgraph.flowchart.direct_data;whiteSpace=wrap;labelBackgroundColor=none;fontSize=14;" parent="1" vertex="1">
          <mxGeometry x="1462" y="1000" width="80" height="50" as="geometry" />
        </mxCell>
        <mxCell id="i99JaRZohKiQuhW2JAXG-100" value="" style="endArrow=none;html=1;rounded=0;entryX=0.91;entryY=1;entryDx=0;entryDy=0;entryPerimeter=0;exitX=0.864;exitY=-0.02;exitDx=0;exitDy=0;exitPerimeter=0;labelBackgroundColor=none;fontColor=default;dashed=1;strokeWidth=1;fontSize=14;" parent="1" source="i99JaRZohKiQuhW2JAXG-97" target="i99JaRZohKiQuhW2JAXG-72" edge="1">
          <mxGeometry width="50" height="50" relative="1" as="geometry">
            <mxPoint x="1550" y="970" as="sourcePoint" />
            <mxPoint x="1643" y="880" as="targetPoint" />
          </mxGeometry>
        </mxCell>
        <mxCell id="i99JaRZohKiQuhW2JAXG-101" value="" style="endArrow=none;html=1;rounded=0;entryX=0.08;entryY=1;entryDx=0;entryDy=0;entryPerimeter=0;exitX=0.08;exitY=0;exitDx=0;exitDy=0;exitPerimeter=0;labelBackgroundColor=none;fontColor=default;dashed=1;strokeWidth=1;fontSize=14;" parent="1" source="i99JaRZohKiQuhW2JAXG-97" target="i99JaRZohKiQuhW2JAXG-72" edge="1">
          <mxGeometry width="50" height="50" relative="1" as="geometry">
            <mxPoint x="1560" y="980" as="sourcePoint" />
            <mxPoint x="1653" y="890" as="targetPoint" />
          </mxGeometry>
        </mxCell>
        <mxCell id="i99JaRZohKiQuhW2JAXG-106" value="exon 1" style="strokeWidth=2;html=1;shape=mxgraph.flowchart.direct_data;whiteSpace=wrap;labelBackgroundColor=none;fontSize=14;" parent="1" vertex="1">
          <mxGeometry x="343" y="110" width="110" height="50" as="geometry" />
        </mxCell>
        <mxCell id="i99JaRZohKiQuhW2JAXG-107" value="exon 2" style="strokeWidth=2;html=1;shape=mxgraph.flowchart.direct_data;whiteSpace=wrap;labelBackgroundColor=none;fontSize=14;" parent="1" vertex="1">
          <mxGeometry x="433" y="110" width="140" height="50" as="geometry" />
        </mxCell>
        <mxCell id="i99JaRZohKiQuhW2JAXG-108" value="exon 3" style="strokeWidth=2;html=1;shape=mxgraph.flowchart.direct_data;whiteSpace=wrap;labelBackgroundColor=none;fontSize=14;" parent="1" vertex="1">
          <mxGeometry x="549" y="110" width="80" height="50" as="geometry" />
        </mxCell>
        <mxCell id="i99JaRZohKiQuhW2JAXG-109" value="" style="endArrow=none;html=1;rounded=0;entryX=0.08;entryY=1;entryDx=0;entryDy=0;entryPerimeter=0;exitX=0.08;exitY=0;exitDx=0;exitDy=0;exitPerimeter=0;labelBackgroundColor=none;fontColor=default;dashed=1;fontSize=14;" parent="1" source="i99JaRZohKiQuhW2JAXG-2" target="i99JaRZohKiQuhW2JAXG-106" edge="1">
          <mxGeometry width="50" height="50" relative="1" as="geometry">
            <mxPoint x="505" y="410" as="sourcePoint" />
            <mxPoint x="374" y="318" as="targetPoint" />
          </mxGeometry>
        </mxCell>
        <mxCell id="i99JaRZohKiQuhW2JAXG-110" value="" style="endArrow=none;html=1;rounded=0;entryX=0.91;entryY=1;entryDx=0;entryDy=0;entryPerimeter=0;exitX=0.91;exitY=0;exitDx=0;exitDy=0;exitPerimeter=0;labelBackgroundColor=none;fontColor=default;dashed=1;fontSize=14;" parent="1" source="i99JaRZohKiQuhW2JAXG-2" target="i99JaRZohKiQuhW2JAXG-106" edge="1">
          <mxGeometry width="50" height="50" relative="1" as="geometry">
            <mxPoint x="515" y="420" as="sourcePoint" />
            <mxPoint x="384" y="328" as="targetPoint" />
          </mxGeometry>
        </mxCell>
        <mxCell id="i99JaRZohKiQuhW2JAXG-111" value="" style="endArrow=none;html=1;rounded=0;entryX=0.08;entryY=1;entryDx=0;entryDy=0;entryPerimeter=0;exitX=0.08;exitY=0;exitDx=0;exitDy=0;exitPerimeter=0;labelBackgroundColor=none;fontColor=default;dashed=1;fontSize=14;" parent="1" source="i99JaRZohKiQuhW2JAXG-3" target="i99JaRZohKiQuhW2JAXG-107" edge="1">
          <mxGeometry width="50" height="50" relative="1" as="geometry">
            <mxPoint x="525" y="430" as="sourcePoint" />
            <mxPoint x="394" y="338" as="targetPoint" />
          </mxGeometry>
        </mxCell>
        <mxCell id="i99JaRZohKiQuhW2JAXG-112" value="" style="endArrow=none;html=1;rounded=0;entryX=0.85;entryY=0.88;entryDx=0;entryDy=0;entryPerimeter=0;exitX=0.91;exitY=0;exitDx=0;exitDy=0;exitPerimeter=0;labelBackgroundColor=none;fontColor=default;dashed=1;fontSize=14;" parent="1" source="i99JaRZohKiQuhW2JAXG-3" target="i99JaRZohKiQuhW2JAXG-107" edge="1">
          <mxGeometry width="50" height="50" relative="1" as="geometry">
            <mxPoint x="535" y="440" as="sourcePoint" />
            <mxPoint x="404" y="348" as="targetPoint" />
          </mxGeometry>
        </mxCell>
        <mxCell id="i99JaRZohKiQuhW2JAXG-113" value="" style="endArrow=none;html=1;rounded=0;entryX=0.08;entryY=1;entryDx=0;entryDy=0;entryPerimeter=0;exitX=0.08;exitY=0;exitDx=0;exitDy=0;exitPerimeter=0;labelBackgroundColor=none;fontColor=default;dashed=1;fontSize=14;" parent="1" source="i99JaRZohKiQuhW2JAXG-4" target="i99JaRZohKiQuhW2JAXG-108" edge="1">
          <mxGeometry width="50" height="50" relative="1" as="geometry">
            <mxPoint x="545" y="450" as="sourcePoint" />
            <mxPoint x="414" y="358" as="targetPoint" />
          </mxGeometry>
        </mxCell>
        <mxCell id="i99JaRZohKiQuhW2JAXG-114" value="" style="endArrow=none;html=1;rounded=0;exitX=0.91;exitY=0;exitDx=0;exitDy=0;exitPerimeter=0;labelBackgroundColor=none;fontColor=default;dashed=1;entryX=0.91;entryY=1;entryDx=0;entryDy=0;entryPerimeter=0;fontSize=14;" parent="1" source="i99JaRZohKiQuhW2JAXG-4" target="i99JaRZohKiQuhW2JAXG-108" edge="1">
          <mxGeometry width="50" height="50" relative="1" as="geometry">
            <mxPoint x="555" y="460" as="sourcePoint" />
            <mxPoint x="550" y="360" as="targetPoint" />
          </mxGeometry>
        </mxCell>
        <mxCell id="i99JaRZohKiQuhW2JAXG-115" value="&lt;font style=&quot;font-size: 14px;&quot; face=&quot;Verdana&quot;&gt;transcrit 2&lt;/font&gt;" style="text;html=1;align=center;verticalAlign=middle;whiteSpace=wrap;rounded=0;fontSize=14;" parent="1" vertex="1">
          <mxGeometry x="305" y="410" width="75" height="30" as="geometry" />
        </mxCell>
        <mxCell id="i99JaRZohKiQuhW2JAXG-116" value="exon 1" style="strokeWidth=2;html=1;shape=mxgraph.flowchart.direct_data;whiteSpace=wrap;labelBackgroundColor=none;fontSize=14;" parent="1" vertex="1">
          <mxGeometry x="1210" y="390" width="110" height="50" as="geometry" />
        </mxCell>
        <mxCell id="i99JaRZohKiQuhW2JAXG-117" value="exon 2" style="strokeWidth=2;html=1;shape=mxgraph.flowchart.direct_data;whiteSpace=wrap;labelBackgroundColor=none;fontSize=14;" parent="1" vertex="1">
          <mxGeometry x="1301" y="390" width="140" height="50" as="geometry" />
        </mxCell>
        <mxCell id="i99JaRZohKiQuhW2JAXG-118" value="" style="endArrow=none;html=1;rounded=0;entryX=0.08;entryY=1;entryDx=0;entryDy=0;entryPerimeter=0;exitX=0.018;exitY=-0.04;exitDx=0;exitDy=0;exitPerimeter=0;labelBackgroundColor=none;fontColor=default;strokeWidth=1;dashed=1;fontSize=14;" parent="1" source="i99JaRZohKiQuhW2JAXG-116" target="i99JaRZohKiQuhW2JAXG-47" edge="1">
          <mxGeometry width="50" height="50" relative="1" as="geometry">
            <mxPoint x="1089" y="270" as="sourcePoint" />
            <mxPoint x="1229" y="170" as="targetPoint" />
          </mxGeometry>
        </mxCell>
        <mxCell id="i99JaRZohKiQuhW2JAXG-119" value="" style="endArrow=none;html=1;rounded=0;entryX=0.91;entryY=1;entryDx=0;entryDy=0;entryPerimeter=0;exitX=0.845;exitY=-0.06;exitDx=0;exitDy=0;exitPerimeter=0;labelBackgroundColor=none;fontColor=default;strokeWidth=1;dashed=1;fontSize=14;" parent="1" source="i99JaRZohKiQuhW2JAXG-116" target="i99JaRZohKiQuhW2JAXG-47" edge="1">
          <mxGeometry width="50" height="50" relative="1" as="geometry">
            <mxPoint x="1099" y="280" as="sourcePoint" />
            <mxPoint x="1239" y="180" as="targetPoint" />
          </mxGeometry>
        </mxCell>
        <mxCell id="i99JaRZohKiQuhW2JAXG-120" value="" style="endArrow=none;html=1;rounded=0;entryX=0.08;entryY=1;entryDx=0;entryDy=0;entryPerimeter=0;exitX=0.91;exitY=0;exitDx=0;exitDy=0;exitPerimeter=0;labelBackgroundColor=none;fontColor=default;strokeWidth=1;dashed=1;fontSize=14;" parent="1" source="i99JaRZohKiQuhW2JAXG-116" target="i99JaRZohKiQuhW2JAXG-48" edge="1">
          <mxGeometry width="50" height="50" relative="1" as="geometry">
            <mxPoint x="1109" y="290" as="sourcePoint" />
            <mxPoint x="1249" y="190" as="targetPoint" />
          </mxGeometry>
        </mxCell>
        <mxCell id="i99JaRZohKiQuhW2JAXG-121" value="" style="endArrow=none;html=1;rounded=0;entryX=0.91;entryY=1;entryDx=0;entryDy=0;entryPerimeter=0;exitX=0.91;exitY=0;exitDx=0;exitDy=0;exitPerimeter=0;labelBackgroundColor=none;fontColor=default;strokeWidth=1;dashed=1;fontSize=14;" parent="1" source="i99JaRZohKiQuhW2JAXG-117" target="i99JaRZohKiQuhW2JAXG-48" edge="1">
          <mxGeometry width="50" height="50" relative="1" as="geometry">
            <mxPoint x="1119" y="300" as="sourcePoint" />
            <mxPoint x="1259" y="200" as="targetPoint" />
          </mxGeometry>
        </mxCell>
        <mxCell id="i99JaRZohKiQuhW2JAXG-122" value="&lt;font style=&quot;font-size: 14px;&quot; face=&quot;Verdana&quot;&gt;transcrit 2&lt;/font&gt;" style="text;html=1;align=center;verticalAlign=middle;whiteSpace=wrap;rounded=0;fontSize=14;" parent="1" vertex="1">
          <mxGeometry x="1115" y="400" width="75" height="30" as="geometry" />
        </mxCell>
        <mxCell id="i99JaRZohKiQuhW2JAXG-71" value="exon 1" style="strokeWidth=2;html=1;shape=mxgraph.flowchart.direct_data;whiteSpace=wrap;labelBackgroundColor=none;fontSize=14;" parent="1" vertex="1">
          <mxGeometry x="1180" y="860" width="72.5" height="50" as="geometry" />
        </mxCell>
        <mxCell id="i99JaRZohKiQuhW2JAXG-99" value="" style="strokeWidth=2;html=1;shape=mxgraph.flowchart.direct_data;whiteSpace=wrap;labelBackgroundColor=none;fillColor=#808080;fontSize=14;" parent="1" vertex="1">
          <mxGeometry x="1240" y="860" width="45.5" height="50" as="geometry" />
        </mxCell>
        <mxCell id="i99JaRZohKiQuhW2JAXG-125" value="" style="endArrow=none;html=1;rounded=0;entryX=0.08;entryY=1;entryDx=0;entryDy=0;entryPerimeter=0;exitX=0.08;exitY=0;exitDx=0;exitDy=0;exitPerimeter=0;curved=0;labelBackgroundColor=none;fontColor=default;dashed=1;strokeWidth=1;fontSize=14;" parent="1" source="i99JaRZohKiQuhW2JAXG-71" target="i99JaRZohKiQuhW2JAXG-124" edge="1">
          <mxGeometry width="50" height="50" relative="1" as="geometry">
            <mxPoint x="1302" y="1010" as="sourcePoint" />
            <mxPoint x="1196" y="920" as="targetPoint" />
          </mxGeometry>
        </mxCell>
        <mxCell id="i99JaRZohKiQuhW2JAXG-126" value="" style="endArrow=none;html=1;rounded=0;entryX=0.85;entryY=1.06;entryDx=0;entryDy=0;entryPerimeter=0;exitX=0.91;exitY=0;exitDx=0;exitDy=0;exitPerimeter=0;curved=0;labelBackgroundColor=none;fontColor=default;dashed=1;strokeWidth=1;fontSize=14;" parent="1" source="i99JaRZohKiQuhW2JAXG-99" target="i99JaRZohKiQuhW2JAXG-124" edge="1">
          <mxGeometry width="50" height="50" relative="1" as="geometry">
            <mxPoint x="1312" y="1020" as="sourcePoint" />
            <mxPoint x="1206" y="930" as="targetPoint" />
          </mxGeometry>
        </mxCell>
        <mxCell id="i99JaRZohKiQuhW2JAXG-75" value="" style="endArrow=none;html=1;rounded=0;strokeWidth=5;labelBackgroundColor=none;fontColor=default;entryX=0;entryY=0.5;entryDx=0;entryDy=0;entryPerimeter=0;fontSize=14;" parent="1" target="i99JaRZohKiQuhW2JAXG-102" edge="1">
          <mxGeometry width="50" height="50" relative="1" as="geometry">
            <mxPoint x="1450" y="885" as="sourcePoint" />
            <mxPoint x="1570" y="885" as="targetPoint" />
          </mxGeometry>
        </mxCell>
        <mxCell id="i99JaRZohKiQuhW2JAXG-74" value="" style="endArrow=none;html=1;rounded=0;strokeWidth=5;labelBackgroundColor=none;fontColor=default;exitX=0.88;exitY=0.5;exitDx=0;exitDy=0;exitPerimeter=0;fontSize=14;" parent="1" source="i99JaRZohKiQuhW2JAXG-99" target="i99JaRZohKiQuhW2JAXG-72" edge="1">
          <mxGeometry width="50" height="50" relative="1" as="geometry">
            <mxPoint x="1280" y="890" as="sourcePoint" />
            <mxPoint x="1320" y="885.1052631578948" as="targetPoint" />
          </mxGeometry>
        </mxCell>
        <mxCell id="ya-5Tr0PbeGaKO2rcUKc-116" value="" style="group" vertex="1" connectable="0" parent="1">
          <mxGeometry x="81.75" y="1270" width="1516.5" height="685" as="geometry" />
        </mxCell>
        <mxCell id="ya-5Tr0PbeGaKO2rcUKc-114" value="" style="group" vertex="1" connectable="0" parent="ya-5Tr0PbeGaKO2rcUKc-116">
          <mxGeometry x="128.25" y="360" width="1292" height="325" as="geometry" />
        </mxCell>
        <mxCell id="ya-5Tr0PbeGaKO2rcUKc-46" value="" style="rounded=0;whiteSpace=wrap;html=1;strokeWidth=2;" vertex="1" parent="ya-5Tr0PbeGaKO2rcUKc-114">
          <mxGeometry x="218" y="105" width="82" height="40" as="geometry" />
        </mxCell>
        <mxCell id="ya-5Tr0PbeGaKO2rcUKc-47" value="" style="endArrow=none;html=1;rounded=0;entryX=1;entryY=0.5;entryDx=0;entryDy=0;strokeWidth=3;" edge="1" parent="ya-5Tr0PbeGaKO2rcUKc-114" target="ya-5Tr0PbeGaKO2rcUKc-46">
          <mxGeometry width="50" height="50" relative="1" as="geometry">
            <mxPoint x="380" y="125" as="sourcePoint" />
            <mxPoint x="690" y="235" as="targetPoint" />
          </mxGeometry>
        </mxCell>
        <mxCell id="ya-5Tr0PbeGaKO2rcUKc-48" value="" style="endArrow=none;html=1;rounded=0;strokeWidth=3;exitX=0;exitY=0.5;exitDx=0;exitDy=0;" edge="1" parent="ya-5Tr0PbeGaKO2rcUKc-114" source="ya-5Tr0PbeGaKO2rcUKc-46">
          <mxGeometry width="50" height="50" relative="1" as="geometry">
            <mxPoint x="170" y="135" as="sourcePoint" />
            <mxPoint x="140" y="125" as="targetPoint" />
          </mxGeometry>
        </mxCell>
        <mxCell id="ya-5Tr0PbeGaKO2rcUKc-49" style="edgeStyle=orthogonalEdgeStyle;rounded=0;orthogonalLoop=1;jettySize=auto;html=1;entryX=0.5;entryY=1;entryDx=0;entryDy=0;exitX=0.5;exitY=1;exitDx=0;exitDy=0;endArrow=classic;endFill=1;startArrow=classic;startFill=1;curved=1;strokeColor=#000099;" edge="1" parent="ya-5Tr0PbeGaKO2rcUKc-114" source="ya-5Tr0PbeGaKO2rcUKc-50" target="ya-5Tr0PbeGaKO2rcUKc-53">
          <mxGeometry relative="1" as="geometry">
            <Array as="points">
              <mxPoint x="143" y="305" />
              <mxPoint x="383" y="305" />
            </Array>
          </mxGeometry>
        </mxCell>
        <mxCell id="ya-5Tr0PbeGaKO2rcUKc-50" value="" style="rounded=0;whiteSpace=wrap;html=1;strokeWidth=2;" vertex="1" parent="ya-5Tr0PbeGaKO2rcUKc-114">
          <mxGeometry x="102" y="205" width="82" height="40" as="geometry" />
        </mxCell>
        <mxCell id="ya-5Tr0PbeGaKO2rcUKc-51" value="" style="endArrow=none;html=1;rounded=0;entryX=1;entryY=0.5;entryDx=0;entryDy=0;strokeWidth=3;" edge="1" parent="ya-5Tr0PbeGaKO2rcUKc-114" target="ya-5Tr0PbeGaKO2rcUKc-50">
          <mxGeometry width="50" height="50" relative="1" as="geometry">
            <mxPoint x="219" y="225" as="sourcePoint" />
            <mxPoint x="574" y="335" as="targetPoint" />
          </mxGeometry>
        </mxCell>
        <mxCell id="ya-5Tr0PbeGaKO2rcUKc-52" value="" style="endArrow=none;html=1;rounded=0;strokeWidth=3;exitX=0;exitY=0.5;exitDx=0;exitDy=0;" edge="1" parent="ya-5Tr0PbeGaKO2rcUKc-114" source="ya-5Tr0PbeGaKO2rcUKc-50">
          <mxGeometry width="50" height="50" relative="1" as="geometry">
            <mxPoint x="54" y="235" as="sourcePoint" />
            <mxPoint x="59" y="225" as="targetPoint" />
          </mxGeometry>
        </mxCell>
        <mxCell id="ya-5Tr0PbeGaKO2rcUKc-53" value="" style="rounded=0;whiteSpace=wrap;html=1;strokeWidth=2;" vertex="1" parent="ya-5Tr0PbeGaKO2rcUKc-114">
          <mxGeometry x="342" y="205" width="82" height="40" as="geometry" />
        </mxCell>
        <mxCell id="ya-5Tr0PbeGaKO2rcUKc-54" value="" style="endArrow=none;html=1;rounded=0;entryX=1;entryY=0.5;entryDx=0;entryDy=0;strokeWidth=3;" edge="1" parent="ya-5Tr0PbeGaKO2rcUKc-114" target="ya-5Tr0PbeGaKO2rcUKc-53">
          <mxGeometry width="50" height="50" relative="1" as="geometry">
            <mxPoint x="459" y="225" as="sourcePoint" />
            <mxPoint x="814" y="335" as="targetPoint" />
          </mxGeometry>
        </mxCell>
        <mxCell id="ya-5Tr0PbeGaKO2rcUKc-55" value="" style="endArrow=none;html=1;rounded=0;strokeWidth=3;exitX=0;exitY=0.5;exitDx=0;exitDy=0;" edge="1" parent="ya-5Tr0PbeGaKO2rcUKc-114" source="ya-5Tr0PbeGaKO2rcUKc-53">
          <mxGeometry width="50" height="50" relative="1" as="geometry">
            <mxPoint x="294" y="235" as="sourcePoint" />
            <mxPoint x="299" y="225" as="targetPoint" />
          </mxGeometry>
        </mxCell>
        <mxCell id="ya-5Tr0PbeGaKO2rcUKc-56" value="" style="endArrow=classic;html=1;rounded=0;" edge="1" parent="ya-5Tr0PbeGaKO2rcUKc-114">
          <mxGeometry width="50" height="50" relative="1" as="geometry">
            <mxPoint x="240" y="155" as="sourcePoint" />
            <mxPoint x="170" y="195" as="targetPoint" />
          </mxGeometry>
        </mxCell>
        <mxCell id="ya-5Tr0PbeGaKO2rcUKc-57" value="" style="endArrow=classic;html=1;rounded=0;" edge="1" parent="ya-5Tr0PbeGaKO2rcUKc-114">
          <mxGeometry width="50" height="50" relative="1" as="geometry">
            <mxPoint x="280" y="155" as="sourcePoint" />
            <mxPoint x="360" y="195" as="targetPoint" />
          </mxGeometry>
        </mxCell>
        <mxCell id="ya-5Tr0PbeGaKO2rcUKc-58" value="&lt;font style=&quot;font-size: 24px;&quot;&gt;&lt;b&gt;E&lt;/b&gt;&lt;sub&gt;1&lt;/sub&gt;&lt;/font&gt;" style="text;html=1;align=center;verticalAlign=middle;whiteSpace=wrap;rounded=0;" vertex="1" parent="ya-5Tr0PbeGaKO2rcUKc-114">
          <mxGeometry x="70" y="110" width="60" height="30" as="geometry" />
        </mxCell>
        <mxCell id="ya-5Tr0PbeGaKO2rcUKc-59" value="&lt;font style=&quot;font-size: 24px;&quot;&gt;&lt;b&gt;E&lt;/b&gt;&lt;sub&gt;2&lt;/sub&gt;&lt;/font&gt;" style="text;html=1;align=center;verticalAlign=middle;whiteSpace=wrap;rounded=0;" vertex="1" parent="ya-5Tr0PbeGaKO2rcUKc-114">
          <mxGeometry y="210" width="60" height="30" as="geometry" />
        </mxCell>
        <mxCell id="ya-5Tr0PbeGaKO2rcUKc-60" value="&lt;font style=&quot;font-size: 24px;&quot;&gt;&lt;b&gt;E&lt;/b&gt;&lt;sub&gt;3&lt;/sub&gt;&lt;/font&gt;" style="text;html=1;align=center;verticalAlign=middle;whiteSpace=wrap;rounded=0;" vertex="1" parent="ya-5Tr0PbeGaKO2rcUKc-114">
          <mxGeometry x="460" y="210" width="60" height="30" as="geometry" />
        </mxCell>
        <mxCell id="ya-5Tr0PbeGaKO2rcUKc-61" value="&lt;span style=&quot;font-size: 24px;&quot;&gt;&lt;i&gt;&lt;font face=&quot;Courier New&quot;&gt;&lt;b&gt;i&lt;/b&gt;&lt;/font&gt;&lt;/i&gt;&lt;/span&gt;" style="text;html=1;align=center;verticalAlign=middle;whiteSpace=wrap;rounded=0;" vertex="1" parent="ya-5Tr0PbeGaKO2rcUKc-114">
          <mxGeometry x="229" y="75" width="60" height="30" as="geometry" />
        </mxCell>
        <mxCell id="ya-5Tr0PbeGaKO2rcUKc-62" value="&lt;font face=&quot;Courier New&quot; style=&quot;font-size: 24px;&quot;&gt;&lt;b style=&quot;&quot;&gt;&lt;i style=&quot;&quot;&gt;i&lt;/i&gt;&lt;/b&gt;&lt;/font&gt;" style="text;html=1;align=center;verticalAlign=middle;whiteSpace=wrap;rounded=0;" vertex="1" parent="ya-5Tr0PbeGaKO2rcUKc-114">
          <mxGeometry x="110" y="175" width="60" height="30" as="geometry" />
        </mxCell>
        <mxCell id="ya-5Tr0PbeGaKO2rcUKc-63" value="&lt;font face=&quot;Courier New&quot; style=&quot;font-size: 24px;&quot;&gt;&lt;b&gt;&lt;i&gt;k&lt;/i&gt;&lt;/b&gt;&lt;/font&gt;" style="text;html=1;align=center;verticalAlign=middle;whiteSpace=wrap;rounded=0;" vertex="1" parent="ya-5Tr0PbeGaKO2rcUKc-114">
          <mxGeometry x="353" y="175" width="60" height="30" as="geometry" />
        </mxCell>
        <mxCell id="ya-5Tr0PbeGaKO2rcUKc-64" value="&lt;font color=&quot;#000099&quot; face=&quot;Times New Roman&quot; style=&quot;font-size: 24px;&quot;&gt;xénologues&lt;/font&gt;" style="text;html=1;align=center;verticalAlign=middle;whiteSpace=wrap;rounded=0;" vertex="1" parent="ya-5Tr0PbeGaKO2rcUKc-114">
          <mxGeometry x="185" y="275" width="160" height="30" as="geometry" />
        </mxCell>
        <mxCell id="ya-5Tr0PbeGaKO2rcUKc-65" value="" style="rounded=0;whiteSpace=wrap;html=1;strokeWidth=2;" vertex="1" parent="ya-5Tr0PbeGaKO2rcUKc-114">
          <mxGeometry x="739" y="80" width="82" height="40" as="geometry" />
        </mxCell>
        <mxCell id="ya-5Tr0PbeGaKO2rcUKc-66" value="" style="endArrow=none;html=1;rounded=0;entryX=1;entryY=0.5;entryDx=0;entryDy=0;strokeWidth=3;" edge="1" parent="ya-5Tr0PbeGaKO2rcUKc-114" target="ya-5Tr0PbeGaKO2rcUKc-65">
          <mxGeometry width="50" height="50" relative="1" as="geometry">
            <mxPoint x="901" y="100" as="sourcePoint" />
            <mxPoint x="1211" y="210" as="targetPoint" />
          </mxGeometry>
        </mxCell>
        <mxCell id="ya-5Tr0PbeGaKO2rcUKc-67" value="" style="endArrow=none;html=1;rounded=0;strokeWidth=3;exitX=0;exitY=0.5;exitDx=0;exitDy=0;" edge="1" parent="ya-5Tr0PbeGaKO2rcUKc-114" source="ya-5Tr0PbeGaKO2rcUKc-65">
          <mxGeometry width="50" height="50" relative="1" as="geometry">
            <mxPoint x="691" y="110" as="sourcePoint" />
            <mxPoint x="661" y="100" as="targetPoint" />
          </mxGeometry>
        </mxCell>
        <mxCell id="ya-5Tr0PbeGaKO2rcUKc-68" style="edgeStyle=orthogonalEdgeStyle;rounded=0;orthogonalLoop=1;jettySize=auto;html=1;entryX=0.5;entryY=1;entryDx=0;entryDy=0;exitX=0.5;exitY=1;exitDx=0;exitDy=0;endArrow=classic;endFill=1;startArrow=classic;startFill=1;curved=1;strokeColor=#000099;" edge="1" parent="ya-5Tr0PbeGaKO2rcUKc-114" source="ya-5Tr0PbeGaKO2rcUKc-69" target="ya-5Tr0PbeGaKO2rcUKc-72">
          <mxGeometry relative="1" as="geometry">
            <Array as="points">
              <mxPoint x="835" y="325" />
              <mxPoint x="1075" y="325" />
            </Array>
          </mxGeometry>
        </mxCell>
        <mxCell id="ya-5Tr0PbeGaKO2rcUKc-69" value="" style="rounded=0;whiteSpace=wrap;html=1;strokeWidth=2;" vertex="1" parent="ya-5Tr0PbeGaKO2rcUKc-114">
          <mxGeometry x="794" y="225" width="82" height="40" as="geometry" />
        </mxCell>
        <mxCell id="ya-5Tr0PbeGaKO2rcUKc-70" value="" style="endArrow=none;html=1;rounded=0;entryX=1;entryY=0.5;entryDx=0;entryDy=0;strokeWidth=3;" edge="1" parent="ya-5Tr0PbeGaKO2rcUKc-114" target="ya-5Tr0PbeGaKO2rcUKc-69">
          <mxGeometry width="50" height="50" relative="1" as="geometry">
            <mxPoint x="911" y="245" as="sourcePoint" />
            <mxPoint x="1266" y="355" as="targetPoint" />
          </mxGeometry>
        </mxCell>
        <mxCell id="ya-5Tr0PbeGaKO2rcUKc-71" value="" style="endArrow=none;html=1;rounded=0;strokeWidth=3;exitX=0;exitY=0.5;exitDx=0;exitDy=0;" edge="1" parent="ya-5Tr0PbeGaKO2rcUKc-114" source="ya-5Tr0PbeGaKO2rcUKc-69">
          <mxGeometry width="50" height="50" relative="1" as="geometry">
            <mxPoint x="746" y="255" as="sourcePoint" />
            <mxPoint x="751" y="245" as="targetPoint" />
          </mxGeometry>
        </mxCell>
        <mxCell id="ya-5Tr0PbeGaKO2rcUKc-72" value="" style="rounded=0;whiteSpace=wrap;html=1;strokeWidth=2;" vertex="1" parent="ya-5Tr0PbeGaKO2rcUKc-114">
          <mxGeometry x="1034" y="225" width="82" height="40" as="geometry" />
        </mxCell>
        <mxCell id="ya-5Tr0PbeGaKO2rcUKc-73" value="" style="endArrow=none;html=1;rounded=0;entryX=1;entryY=0.5;entryDx=0;entryDy=0;strokeWidth=3;" edge="1" parent="ya-5Tr0PbeGaKO2rcUKc-114" target="ya-5Tr0PbeGaKO2rcUKc-72">
          <mxGeometry width="50" height="50" relative="1" as="geometry">
            <mxPoint x="1151" y="245" as="sourcePoint" />
            <mxPoint x="1506" y="355" as="targetPoint" />
          </mxGeometry>
        </mxCell>
        <mxCell id="ya-5Tr0PbeGaKO2rcUKc-74" value="" style="endArrow=none;html=1;rounded=0;strokeWidth=3;exitX=0;exitY=0.5;exitDx=0;exitDy=0;" edge="1" parent="ya-5Tr0PbeGaKO2rcUKc-114" source="ya-5Tr0PbeGaKO2rcUKc-72">
          <mxGeometry width="50" height="50" relative="1" as="geometry">
            <mxPoint x="986" y="255" as="sourcePoint" />
            <mxPoint x="991" y="245" as="targetPoint" />
          </mxGeometry>
        </mxCell>
        <mxCell id="ya-5Tr0PbeGaKO2rcUKc-75" value="" style="endArrow=classic;html=1;rounded=0;" edge="1" parent="ya-5Tr0PbeGaKO2rcUKc-114">
          <mxGeometry width="50" height="50" relative="1" as="geometry">
            <mxPoint x="781" y="125" as="sourcePoint" />
            <mxPoint x="831" y="185" as="targetPoint" />
          </mxGeometry>
        </mxCell>
        <mxCell id="ya-5Tr0PbeGaKO2rcUKc-76" value="" style="endArrow=classic;html=1;rounded=0;" edge="1" parent="ya-5Tr0PbeGaKO2rcUKc-114">
          <mxGeometry width="50" height="50" relative="1" as="geometry">
            <mxPoint x="1105" y="125" as="sourcePoint" />
            <mxPoint x="1071" y="185" as="targetPoint" />
          </mxGeometry>
        </mxCell>
        <mxCell id="ya-5Tr0PbeGaKO2rcUKc-77" value="&lt;font style=&quot;font-size: 24px;&quot;&gt;&lt;b&gt;E&lt;/b&gt;&lt;sub&gt;1&lt;/sub&gt;&lt;/font&gt;" style="text;html=1;align=center;verticalAlign=middle;whiteSpace=wrap;rounded=0;" vertex="1" parent="ya-5Tr0PbeGaKO2rcUKc-114">
          <mxGeometry x="600" y="85" width="60" height="30" as="geometry" />
        </mxCell>
        <mxCell id="ya-5Tr0PbeGaKO2rcUKc-78" value="&lt;font style=&quot;font-size: 24px;&quot;&gt;&lt;b&gt;E&lt;/b&gt;&lt;sub&gt;3&lt;/sub&gt;&lt;/font&gt;" style="text;html=1;align=center;verticalAlign=middle;whiteSpace=wrap;rounded=0;" vertex="1" parent="ya-5Tr0PbeGaKO2rcUKc-114">
          <mxGeometry x="692" y="230" width="60" height="30" as="geometry" />
        </mxCell>
        <mxCell id="ya-5Tr0PbeGaKO2rcUKc-80" value="&lt;span style=&quot;font-size: 24px;&quot;&gt;&lt;i&gt;&lt;font face=&quot;Courier New&quot;&gt;&lt;b&gt;i&lt;/b&gt;&lt;/font&gt;&lt;/i&gt;&lt;/span&gt;" style="text;html=1;align=center;verticalAlign=middle;whiteSpace=wrap;rounded=0;" vertex="1" parent="ya-5Tr0PbeGaKO2rcUKc-114">
          <mxGeometry x="750" y="50" width="60" height="30" as="geometry" />
        </mxCell>
        <mxCell id="ya-5Tr0PbeGaKO2rcUKc-81" value="&lt;font face=&quot;Courier New&quot; style=&quot;font-size: 24px;&quot;&gt;&lt;b style=&quot;&quot;&gt;&lt;i style=&quot;&quot;&gt;i&lt;/i&gt;&lt;/b&gt;&lt;/font&gt;" style="text;html=1;align=center;verticalAlign=middle;whiteSpace=wrap;rounded=0;" vertex="1" parent="ya-5Tr0PbeGaKO2rcUKc-114">
          <mxGeometry x="802" y="195" width="60" height="30" as="geometry" />
        </mxCell>
        <mxCell id="ya-5Tr0PbeGaKO2rcUKc-82" value="&lt;font face=&quot;Courier New&quot; style=&quot;font-size: 24px;&quot;&gt;&lt;b&gt;&lt;i&gt;k&lt;/i&gt;&lt;/b&gt;&lt;/font&gt;" style="text;html=1;align=center;verticalAlign=middle;whiteSpace=wrap;rounded=0;" vertex="1" parent="ya-5Tr0PbeGaKO2rcUKc-114">
          <mxGeometry x="1045" y="195" width="60" height="30" as="geometry" />
        </mxCell>
        <mxCell id="ya-5Tr0PbeGaKO2rcUKc-83" value="&lt;font color=&quot;#000099&quot; face=&quot;Times New Roman&quot; style=&quot;font-size: 24px;&quot;&gt;homéologues&lt;/font&gt;" style="text;html=1;align=center;verticalAlign=middle;whiteSpace=wrap;rounded=0;" vertex="1" parent="ya-5Tr0PbeGaKO2rcUKc-114">
          <mxGeometry x="877" y="295" width="160" height="30" as="geometry" />
        </mxCell>
        <mxCell id="ya-5Tr0PbeGaKO2rcUKc-84" value="" style="endArrow=none;html=1;rounded=0;entryX=1;entryY=0.5;entryDx=0;entryDy=0;dashed=1;strokeWidth=3;dashPattern=1 2;exitX=0;exitY=0.5;exitDx=0;exitDy=0;" edge="1" parent="ya-5Tr0PbeGaKO2rcUKc-114" source="ya-5Tr0PbeGaKO2rcUKc-72" target="ya-5Tr0PbeGaKO2rcUKc-69">
          <mxGeometry width="50" height="50" relative="1" as="geometry">
            <mxPoint x="1062" y="230" as="sourcePoint" />
            <mxPoint x="906" y="230" as="targetPoint" />
          </mxGeometry>
        </mxCell>
        <mxCell id="ya-5Tr0PbeGaKO2rcUKc-85" value="" style="rounded=0;whiteSpace=wrap;html=1;strokeWidth=2;" vertex="1" parent="ya-5Tr0PbeGaKO2rcUKc-114">
          <mxGeometry x="1055.5" y="80" width="82" height="40" as="geometry" />
        </mxCell>
        <mxCell id="ya-5Tr0PbeGaKO2rcUKc-86" value="" style="endArrow=none;html=1;rounded=0;entryX=1;entryY=0.5;entryDx=0;entryDy=0;strokeWidth=3;" edge="1" parent="ya-5Tr0PbeGaKO2rcUKc-114" target="ya-5Tr0PbeGaKO2rcUKc-85">
          <mxGeometry width="50" height="50" relative="1" as="geometry">
            <mxPoint x="1217.5" y="100" as="sourcePoint" />
            <mxPoint x="1527.5" y="210" as="targetPoint" />
          </mxGeometry>
        </mxCell>
        <mxCell id="ya-5Tr0PbeGaKO2rcUKc-87" value="" style="endArrow=none;html=1;rounded=0;strokeWidth=3;exitX=0;exitY=0.5;exitDx=0;exitDy=0;" edge="1" parent="ya-5Tr0PbeGaKO2rcUKc-114" source="ya-5Tr0PbeGaKO2rcUKc-85">
          <mxGeometry width="50" height="50" relative="1" as="geometry">
            <mxPoint x="1007.5" y="110" as="sourcePoint" />
            <mxPoint x="977.5" y="100" as="targetPoint" />
          </mxGeometry>
        </mxCell>
        <mxCell id="ya-5Tr0PbeGaKO2rcUKc-88" value="&lt;font style=&quot;font-size: 24px;&quot;&gt;&lt;b&gt;E&lt;/b&gt;&lt;sub&gt;2&lt;/sub&gt;&lt;/font&gt;" style="text;html=1;align=center;verticalAlign=middle;whiteSpace=wrap;rounded=0;" vertex="1" parent="ya-5Tr0PbeGaKO2rcUKc-114">
          <mxGeometry x="1232" y="85" width="60" height="30" as="geometry" />
        </mxCell>
        <mxCell id="ya-5Tr0PbeGaKO2rcUKc-89" value="&lt;span style=&quot;font-size: 24px;&quot;&gt;&lt;i&gt;&lt;font face=&quot;Courier New&quot;&gt;&lt;b&gt;k&lt;/b&gt;&lt;/font&gt;&lt;/i&gt;&lt;/span&gt;" style="text;html=1;align=center;verticalAlign=middle;whiteSpace=wrap;rounded=0;" vertex="1" parent="ya-5Tr0PbeGaKO2rcUKc-114">
          <mxGeometry x="1066.5" y="50" width="60" height="30" as="geometry" />
        </mxCell>
        <mxCell id="ya-5Tr0PbeGaKO2rcUKc-112" value="&lt;font face=&quot;Times New Roman&quot;&gt;&lt;span style=&quot;font-size: 25px;&quot;&gt;&lt;u&gt;&amp;nbsp; &amp;nbsp;Transfert Horizontal&amp;nbsp; &amp;nbsp;&lt;/u&gt;&lt;/span&gt;&lt;/font&gt;" style="text;html=1;align=center;verticalAlign=middle;whiteSpace=wrap;rounded=0;" vertex="1" parent="ya-5Tr0PbeGaKO2rcUKc-114">
          <mxGeometry x="94.75" width="340.5" height="30" as="geometry" />
        </mxCell>
        <mxCell id="ya-5Tr0PbeGaKO2rcUKc-113" value="&lt;font face=&quot;Times New Roman&quot;&gt;&lt;span style=&quot;font-size: 25px;&quot;&gt;&lt;u&gt;&amp;nbsp; &amp;nbsp;Hybridation inter-espèces&amp;nbsp; &amp;nbsp;&lt;/u&gt;&lt;/span&gt;&lt;/font&gt;" style="text;html=1;align=center;verticalAlign=middle;whiteSpace=wrap;rounded=0;" vertex="1" parent="ya-5Tr0PbeGaKO2rcUKc-114">
          <mxGeometry x="788" width="340.5" height="30" as="geometry" />
        </mxCell>
        <mxCell id="ya-5Tr0PbeGaKO2rcUKc-115" value="" style="group" vertex="1" connectable="0" parent="ya-5Tr0PbeGaKO2rcUKc-116">
          <mxGeometry width="1516.5" height="300" as="geometry" />
        </mxCell>
        <mxCell id="ya-5Tr0PbeGaKO2rcUKc-2" value="" style="rounded=0;whiteSpace=wrap;html=1;strokeWidth=2;" vertex="1" parent="ya-5Tr0PbeGaKO2rcUKc-115">
          <mxGeometry x="218" y="100" width="82" height="40" as="geometry" />
        </mxCell>
        <mxCell id="ya-5Tr0PbeGaKO2rcUKc-3" value="" style="endArrow=none;html=1;rounded=0;entryX=1;entryY=0.5;entryDx=0;entryDy=0;strokeWidth=3;" edge="1" parent="ya-5Tr0PbeGaKO2rcUKc-115" target="ya-5Tr0PbeGaKO2rcUKc-2">
          <mxGeometry width="50" height="50" relative="1" as="geometry">
            <mxPoint x="380" y="120" as="sourcePoint" />
            <mxPoint x="690" y="230" as="targetPoint" />
          </mxGeometry>
        </mxCell>
        <mxCell id="ya-5Tr0PbeGaKO2rcUKc-4" value="" style="endArrow=none;html=1;rounded=0;strokeWidth=3;exitX=0;exitY=0.5;exitDx=0;exitDy=0;" edge="1" parent="ya-5Tr0PbeGaKO2rcUKc-115" source="ya-5Tr0PbeGaKO2rcUKc-2">
          <mxGeometry width="50" height="50" relative="1" as="geometry">
            <mxPoint x="170" y="130" as="sourcePoint" />
            <mxPoint x="140" y="120" as="targetPoint" />
          </mxGeometry>
        </mxCell>
        <mxCell id="ya-5Tr0PbeGaKO2rcUKc-24" style="edgeStyle=orthogonalEdgeStyle;rounded=0;orthogonalLoop=1;jettySize=auto;html=1;entryX=0.5;entryY=1;entryDx=0;entryDy=0;exitX=0.5;exitY=1;exitDx=0;exitDy=0;endArrow=classic;endFill=1;startArrow=classic;startFill=1;curved=1;strokeColor=#000099;" edge="1" parent="ya-5Tr0PbeGaKO2rcUKc-115" source="ya-5Tr0PbeGaKO2rcUKc-5" target="ya-5Tr0PbeGaKO2rcUKc-8">
          <mxGeometry relative="1" as="geometry">
            <Array as="points">
              <mxPoint x="143" y="300" />
              <mxPoint x="383" y="300" />
            </Array>
          </mxGeometry>
        </mxCell>
        <mxCell id="ya-5Tr0PbeGaKO2rcUKc-5" value="" style="rounded=0;whiteSpace=wrap;html=1;strokeWidth=2;" vertex="1" parent="ya-5Tr0PbeGaKO2rcUKc-115">
          <mxGeometry x="102" y="200" width="82" height="40" as="geometry" />
        </mxCell>
        <mxCell id="ya-5Tr0PbeGaKO2rcUKc-6" value="" style="endArrow=none;html=1;rounded=0;entryX=1;entryY=0.5;entryDx=0;entryDy=0;strokeWidth=3;" edge="1" parent="ya-5Tr0PbeGaKO2rcUKc-115" target="ya-5Tr0PbeGaKO2rcUKc-5">
          <mxGeometry width="50" height="50" relative="1" as="geometry">
            <mxPoint x="219" y="220" as="sourcePoint" />
            <mxPoint x="574" y="330" as="targetPoint" />
          </mxGeometry>
        </mxCell>
        <mxCell id="ya-5Tr0PbeGaKO2rcUKc-7" value="" style="endArrow=none;html=1;rounded=0;strokeWidth=3;exitX=0;exitY=0.5;exitDx=0;exitDy=0;" edge="1" parent="ya-5Tr0PbeGaKO2rcUKc-115" source="ya-5Tr0PbeGaKO2rcUKc-5">
          <mxGeometry width="50" height="50" relative="1" as="geometry">
            <mxPoint x="54" y="230" as="sourcePoint" />
            <mxPoint x="59" y="220" as="targetPoint" />
          </mxGeometry>
        </mxCell>
        <mxCell id="ya-5Tr0PbeGaKO2rcUKc-8" value="" style="rounded=0;whiteSpace=wrap;html=1;strokeWidth=2;" vertex="1" parent="ya-5Tr0PbeGaKO2rcUKc-115">
          <mxGeometry x="342" y="200" width="82" height="40" as="geometry" />
        </mxCell>
        <mxCell id="ya-5Tr0PbeGaKO2rcUKc-9" value="" style="endArrow=none;html=1;rounded=0;entryX=1;entryY=0.5;entryDx=0;entryDy=0;strokeWidth=3;" edge="1" parent="ya-5Tr0PbeGaKO2rcUKc-115" target="ya-5Tr0PbeGaKO2rcUKc-8">
          <mxGeometry width="50" height="50" relative="1" as="geometry">
            <mxPoint x="459" y="220" as="sourcePoint" />
            <mxPoint x="814" y="330" as="targetPoint" />
          </mxGeometry>
        </mxCell>
        <mxCell id="ya-5Tr0PbeGaKO2rcUKc-10" value="" style="endArrow=none;html=1;rounded=0;strokeWidth=3;exitX=0;exitY=0.5;exitDx=0;exitDy=0;" edge="1" parent="ya-5Tr0PbeGaKO2rcUKc-115" source="ya-5Tr0PbeGaKO2rcUKc-8">
          <mxGeometry width="50" height="50" relative="1" as="geometry">
            <mxPoint x="294" y="230" as="sourcePoint" />
            <mxPoint x="299" y="220" as="targetPoint" />
          </mxGeometry>
        </mxCell>
        <mxCell id="ya-5Tr0PbeGaKO2rcUKc-11" value="" style="endArrow=classic;html=1;rounded=0;" edge="1" parent="ya-5Tr0PbeGaKO2rcUKc-115">
          <mxGeometry width="50" height="50" relative="1" as="geometry">
            <mxPoint x="240" y="150" as="sourcePoint" />
            <mxPoint x="170" y="190" as="targetPoint" />
          </mxGeometry>
        </mxCell>
        <mxCell id="ya-5Tr0PbeGaKO2rcUKc-16" value="" style="endArrow=classic;html=1;rounded=0;" edge="1" parent="ya-5Tr0PbeGaKO2rcUKc-115">
          <mxGeometry width="50" height="50" relative="1" as="geometry">
            <mxPoint x="280" y="150" as="sourcePoint" />
            <mxPoint x="360" y="190" as="targetPoint" />
          </mxGeometry>
        </mxCell>
        <mxCell id="ya-5Tr0PbeGaKO2rcUKc-17" value="&lt;font style=&quot;font-size: 24px;&quot;&gt;&lt;b&gt;E&lt;/b&gt;&lt;sub&gt;1&lt;/sub&gt;&lt;/font&gt;" style="text;html=1;align=center;verticalAlign=middle;whiteSpace=wrap;rounded=0;" vertex="1" parent="ya-5Tr0PbeGaKO2rcUKc-115">
          <mxGeometry x="70" y="105" width="60" height="30" as="geometry" />
        </mxCell>
        <mxCell id="ya-5Tr0PbeGaKO2rcUKc-18" value="&lt;font style=&quot;font-size: 24px;&quot;&gt;&lt;b&gt;E&lt;/b&gt;&lt;sub&gt;2&lt;/sub&gt;&lt;/font&gt;" style="text;html=1;align=center;verticalAlign=middle;whiteSpace=wrap;rounded=0;" vertex="1" parent="ya-5Tr0PbeGaKO2rcUKc-115">
          <mxGeometry y="205" width="60" height="30" as="geometry" />
        </mxCell>
        <mxCell id="ya-5Tr0PbeGaKO2rcUKc-19" value="&lt;font style=&quot;font-size: 24px;&quot;&gt;&lt;b&gt;E&lt;/b&gt;&lt;sub&gt;3&lt;/sub&gt;&lt;/font&gt;" style="text;html=1;align=center;verticalAlign=middle;whiteSpace=wrap;rounded=0;" vertex="1" parent="ya-5Tr0PbeGaKO2rcUKc-115">
          <mxGeometry x="460" y="205" width="60" height="30" as="geometry" />
        </mxCell>
        <mxCell id="ya-5Tr0PbeGaKO2rcUKc-20" value="&lt;span style=&quot;font-size: 24px;&quot;&gt;&lt;i&gt;&lt;font face=&quot;Courier New&quot;&gt;&lt;b&gt;i&lt;/b&gt;&lt;/font&gt;&lt;/i&gt;&lt;/span&gt;" style="text;html=1;align=center;verticalAlign=middle;whiteSpace=wrap;rounded=0;" vertex="1" parent="ya-5Tr0PbeGaKO2rcUKc-115">
          <mxGeometry x="229" y="70" width="60" height="30" as="geometry" />
        </mxCell>
        <mxCell id="ya-5Tr0PbeGaKO2rcUKc-21" value="&lt;font face=&quot;Courier New&quot; style=&quot;font-size: 24px;&quot;&gt;&lt;b style=&quot;&quot;&gt;&lt;i style=&quot;&quot;&gt;i&lt;/i&gt;&lt;/b&gt;&lt;/font&gt;" style="text;html=1;align=center;verticalAlign=middle;whiteSpace=wrap;rounded=0;" vertex="1" parent="ya-5Tr0PbeGaKO2rcUKc-115">
          <mxGeometry x="110" y="170" width="60" height="30" as="geometry" />
        </mxCell>
        <mxCell id="ya-5Tr0PbeGaKO2rcUKc-22" value="&lt;font face=&quot;Courier New&quot; style=&quot;font-size: 24px;&quot;&gt;&lt;b&gt;&lt;i&gt;i&lt;/i&gt;&lt;/b&gt;&lt;/font&gt;" style="text;html=1;align=center;verticalAlign=middle;whiteSpace=wrap;rounded=0;" vertex="1" parent="ya-5Tr0PbeGaKO2rcUKc-115">
          <mxGeometry x="353" y="170" width="60" height="30" as="geometry" />
        </mxCell>
        <mxCell id="ya-5Tr0PbeGaKO2rcUKc-25" value="&lt;font color=&quot;#000099&quot; face=&quot;Times New Roman&quot; style=&quot;font-size: 24px;&quot;&gt;orthologues&lt;/font&gt;" style="text;html=1;align=center;verticalAlign=middle;whiteSpace=wrap;rounded=0;" vertex="1" parent="ya-5Tr0PbeGaKO2rcUKc-115">
          <mxGeometry x="185" y="270" width="160" height="30" as="geometry" />
        </mxCell>
        <mxCell id="ya-5Tr0PbeGaKO2rcUKc-26" value="" style="rounded=0;whiteSpace=wrap;html=1;strokeWidth=2;" vertex="1" parent="ya-5Tr0PbeGaKO2rcUKc-115">
          <mxGeometry x="814" y="100" width="82" height="40" as="geometry" />
        </mxCell>
        <mxCell id="ya-5Tr0PbeGaKO2rcUKc-27" value="" style="endArrow=none;html=1;rounded=0;entryX=1;entryY=0.5;entryDx=0;entryDy=0;strokeWidth=3;" edge="1" parent="ya-5Tr0PbeGaKO2rcUKc-115" target="ya-5Tr0PbeGaKO2rcUKc-26">
          <mxGeometry width="50" height="50" relative="1" as="geometry">
            <mxPoint x="976" y="120" as="sourcePoint" />
            <mxPoint x="1286" y="230" as="targetPoint" />
          </mxGeometry>
        </mxCell>
        <mxCell id="ya-5Tr0PbeGaKO2rcUKc-28" value="" style="endArrow=none;html=1;rounded=0;strokeWidth=3;exitX=0;exitY=0.5;exitDx=0;exitDy=0;" edge="1" parent="ya-5Tr0PbeGaKO2rcUKc-115" source="ya-5Tr0PbeGaKO2rcUKc-26">
          <mxGeometry width="50" height="50" relative="1" as="geometry">
            <mxPoint x="766" y="130" as="sourcePoint" />
            <mxPoint x="736" y="120" as="targetPoint" />
          </mxGeometry>
        </mxCell>
        <mxCell id="ya-5Tr0PbeGaKO2rcUKc-29" style="edgeStyle=orthogonalEdgeStyle;rounded=0;orthogonalLoop=1;jettySize=auto;html=1;entryX=0.5;entryY=1;entryDx=0;entryDy=0;exitX=0.5;exitY=1;exitDx=0;exitDy=0;endArrow=classic;endFill=1;startArrow=classic;startFill=1;curved=1;strokeColor=#000099;" edge="1" parent="ya-5Tr0PbeGaKO2rcUKc-115" source="ya-5Tr0PbeGaKO2rcUKc-30" target="ya-5Tr0PbeGaKO2rcUKc-33">
          <mxGeometry relative="1" as="geometry">
            <Array as="points">
              <mxPoint x="739" y="300" />
              <mxPoint x="979" y="300" />
            </Array>
          </mxGeometry>
        </mxCell>
        <mxCell id="ya-5Tr0PbeGaKO2rcUKc-30" value="" style="rounded=0;whiteSpace=wrap;html=1;strokeWidth=2;" vertex="1" parent="ya-5Tr0PbeGaKO2rcUKc-115">
          <mxGeometry x="698" y="200" width="82" height="40" as="geometry" />
        </mxCell>
        <mxCell id="ya-5Tr0PbeGaKO2rcUKc-31" value="" style="endArrow=none;html=1;rounded=0;entryX=1;entryY=0.5;entryDx=0;entryDy=0;strokeWidth=3;" edge="1" parent="ya-5Tr0PbeGaKO2rcUKc-115" target="ya-5Tr0PbeGaKO2rcUKc-30">
          <mxGeometry width="50" height="50" relative="1" as="geometry">
            <mxPoint x="815" y="220" as="sourcePoint" />
            <mxPoint x="1170" y="330" as="targetPoint" />
          </mxGeometry>
        </mxCell>
        <mxCell id="ya-5Tr0PbeGaKO2rcUKc-32" value="" style="endArrow=none;html=1;rounded=0;strokeWidth=3;exitX=0;exitY=0.5;exitDx=0;exitDy=0;" edge="1" parent="ya-5Tr0PbeGaKO2rcUKc-115" source="ya-5Tr0PbeGaKO2rcUKc-30">
          <mxGeometry width="50" height="50" relative="1" as="geometry">
            <mxPoint x="650" y="230" as="sourcePoint" />
            <mxPoint x="655" y="220" as="targetPoint" />
          </mxGeometry>
        </mxCell>
        <mxCell id="ya-5Tr0PbeGaKO2rcUKc-33" value="" style="rounded=0;whiteSpace=wrap;html=1;strokeWidth=2;" vertex="1" parent="ya-5Tr0PbeGaKO2rcUKc-115">
          <mxGeometry x="938" y="200" width="82" height="40" as="geometry" />
        </mxCell>
        <mxCell id="ya-5Tr0PbeGaKO2rcUKc-34" value="" style="endArrow=none;html=1;rounded=0;entryX=1;entryY=0.5;entryDx=0;entryDy=0;strokeWidth=3;" edge="1" parent="ya-5Tr0PbeGaKO2rcUKc-115" target="ya-5Tr0PbeGaKO2rcUKc-33">
          <mxGeometry width="50" height="50" relative="1" as="geometry">
            <mxPoint x="1055" y="220" as="sourcePoint" />
            <mxPoint x="1410" y="330" as="targetPoint" />
          </mxGeometry>
        </mxCell>
        <mxCell id="ya-5Tr0PbeGaKO2rcUKc-35" value="" style="endArrow=none;html=1;rounded=0;strokeWidth=3;exitX=0;exitY=0.5;exitDx=0;exitDy=0;" edge="1" parent="ya-5Tr0PbeGaKO2rcUKc-115" source="ya-5Tr0PbeGaKO2rcUKc-33">
          <mxGeometry width="50" height="50" relative="1" as="geometry">
            <mxPoint x="890" y="230" as="sourcePoint" />
            <mxPoint x="895" y="220" as="targetPoint" />
          </mxGeometry>
        </mxCell>
        <mxCell id="ya-5Tr0PbeGaKO2rcUKc-36" value="" style="endArrow=classic;html=1;rounded=0;" edge="1" parent="ya-5Tr0PbeGaKO2rcUKc-115">
          <mxGeometry width="50" height="50" relative="1" as="geometry">
            <mxPoint x="836" y="150" as="sourcePoint" />
            <mxPoint x="766" y="190" as="targetPoint" />
          </mxGeometry>
        </mxCell>
        <mxCell id="ya-5Tr0PbeGaKO2rcUKc-37" value="" style="endArrow=classic;html=1;rounded=0;" edge="1" parent="ya-5Tr0PbeGaKO2rcUKc-115">
          <mxGeometry width="50" height="50" relative="1" as="geometry">
            <mxPoint x="876" y="150" as="sourcePoint" />
            <mxPoint x="956" y="190" as="targetPoint" />
          </mxGeometry>
        </mxCell>
        <mxCell id="ya-5Tr0PbeGaKO2rcUKc-38" value="&lt;font style=&quot;font-size: 24px;&quot;&gt;&lt;b&gt;E&lt;/b&gt;&lt;sub&gt;1&lt;/sub&gt;&lt;/font&gt;" style="text;html=1;align=center;verticalAlign=middle;whiteSpace=wrap;rounded=0;" vertex="1" parent="ya-5Tr0PbeGaKO2rcUKc-115">
          <mxGeometry x="666" y="105" width="60" height="30" as="geometry" />
        </mxCell>
        <mxCell id="ya-5Tr0PbeGaKO2rcUKc-39" value="&lt;font style=&quot;font-size: 24px;&quot;&gt;&lt;b&gt;E&lt;/b&gt;&lt;sub&gt;1&lt;/sub&gt;&lt;/font&gt;" style="text;html=1;align=center;verticalAlign=middle;whiteSpace=wrap;rounded=0;" vertex="1" parent="ya-5Tr0PbeGaKO2rcUKc-115">
          <mxGeometry x="596" y="205" width="60" height="30" as="geometry" />
        </mxCell>
        <mxCell id="ya-5Tr0PbeGaKO2rcUKc-41" value="&lt;font face=&quot;Courier New&quot; style=&quot;font-size: 24px;&quot;&gt;&lt;b&gt;&lt;i&gt;i&lt;/i&gt;&lt;/b&gt;&lt;/font&gt;" style="text;html=1;align=center;verticalAlign=middle;whiteSpace=wrap;rounded=0;" vertex="1" parent="ya-5Tr0PbeGaKO2rcUKc-115">
          <mxGeometry x="825" y="70" width="60" height="30" as="geometry" />
        </mxCell>
        <mxCell id="ya-5Tr0PbeGaKO2rcUKc-42" value="&lt;font face=&quot;Courier New&quot; style=&quot;font-size: 24px;&quot;&gt;&lt;b&gt;&lt;i&gt;i&lt;/i&gt;&lt;/b&gt;&lt;/font&gt;" style="text;html=1;align=center;verticalAlign=middle;whiteSpace=wrap;rounded=0;" vertex="1" parent="ya-5Tr0PbeGaKO2rcUKc-115">
          <mxGeometry x="706" y="170" width="60" height="30" as="geometry" />
        </mxCell>
        <mxCell id="ya-5Tr0PbeGaKO2rcUKc-43" value="&lt;font face=&quot;Courier New&quot; style=&quot;font-size: 24px;&quot;&gt;&lt;b&gt;&lt;i&gt;k&lt;/i&gt;&lt;/b&gt;&lt;/font&gt;" style="text;html=1;align=center;verticalAlign=middle;whiteSpace=wrap;rounded=0;" vertex="1" parent="ya-5Tr0PbeGaKO2rcUKc-115">
          <mxGeometry x="949" y="170" width="60" height="30" as="geometry" />
        </mxCell>
        <mxCell id="ya-5Tr0PbeGaKO2rcUKc-44" value="&lt;font color=&quot;#000099&quot; face=&quot;Times New Roman&quot; style=&quot;font-size: 24px;&quot;&gt;paralogues&lt;/font&gt;" style="text;html=1;align=center;verticalAlign=middle;whiteSpace=wrap;rounded=0;" vertex="1" parent="ya-5Tr0PbeGaKO2rcUKc-115">
          <mxGeometry x="781" y="270" width="160" height="30" as="geometry" />
        </mxCell>
        <mxCell id="ya-5Tr0PbeGaKO2rcUKc-45" value="" style="endArrow=none;html=1;rounded=0;entryX=1;entryY=0.5;entryDx=0;entryDy=0;dashed=1;strokeWidth=3;dashPattern=1 2;" edge="1" parent="ya-5Tr0PbeGaKO2rcUKc-115" target="ya-5Tr0PbeGaKO2rcUKc-30">
          <mxGeometry width="50" height="50" relative="1" as="geometry">
            <mxPoint x="936" y="220" as="sourcePoint" />
            <mxPoint x="726" y="190" as="targetPoint" />
          </mxGeometry>
        </mxCell>
        <mxCell id="ya-5Tr0PbeGaKO2rcUKc-90" value="" style="rounded=0;whiteSpace=wrap;html=1;strokeWidth=2;" vertex="1" parent="ya-5Tr0PbeGaKO2rcUKc-115">
          <mxGeometry x="1354.5" y="110" width="82" height="40" as="geometry" />
        </mxCell>
        <mxCell id="ya-5Tr0PbeGaKO2rcUKc-91" value="" style="endArrow=none;html=1;rounded=0;entryX=1;entryY=0.5;entryDx=0;entryDy=0;strokeWidth=3;" edge="1" parent="ya-5Tr0PbeGaKO2rcUKc-115" target="ya-5Tr0PbeGaKO2rcUKc-90">
          <mxGeometry width="50" height="50" relative="1" as="geometry">
            <mxPoint x="1516.5" y="130" as="sourcePoint" />
            <mxPoint x="1826.5" y="240" as="targetPoint" />
          </mxGeometry>
        </mxCell>
        <mxCell id="ya-5Tr0PbeGaKO2rcUKc-92" value="" style="endArrow=none;html=1;rounded=0;strokeWidth=3;exitX=0;exitY=0.5;exitDx=0;exitDy=0;" edge="1" parent="ya-5Tr0PbeGaKO2rcUKc-115" source="ya-5Tr0PbeGaKO2rcUKc-90">
          <mxGeometry width="50" height="50" relative="1" as="geometry">
            <mxPoint x="1306.5" y="140" as="sourcePoint" />
            <mxPoint x="1276.5" y="130" as="targetPoint" />
          </mxGeometry>
        </mxCell>
        <mxCell id="ya-5Tr0PbeGaKO2rcUKc-96" value="" style="endArrow=none;html=1;rounded=0;strokeWidth=3;" edge="1" parent="ya-5Tr0PbeGaKO2rcUKc-115">
          <mxGeometry width="50" height="50" relative="1" as="geometry">
            <mxPoint x="1458.25" y="219.5" as="sourcePoint" />
            <mxPoint x="1333.75" y="219.5" as="targetPoint" />
          </mxGeometry>
        </mxCell>
        <mxCell id="ya-5Tr0PbeGaKO2rcUKc-100" value="" style="endArrow=classic;html=1;rounded=0;" edge="1" parent="ya-5Tr0PbeGaKO2rcUKc-115">
          <mxGeometry width="50" height="50" relative="1" as="geometry">
            <mxPoint x="1396" y="160" as="sourcePoint" />
            <mxPoint x="1396" y="210" as="targetPoint" />
          </mxGeometry>
        </mxCell>
        <mxCell id="ya-5Tr0PbeGaKO2rcUKc-102" value="&lt;font style=&quot;font-size: 24px;&quot;&gt;&lt;b&gt;E&lt;/b&gt;&lt;sub&gt;1&lt;/sub&gt;&lt;/font&gt;" style="text;html=1;align=center;verticalAlign=middle;whiteSpace=wrap;rounded=0;" vertex="1" parent="ya-5Tr0PbeGaKO2rcUKc-115">
          <mxGeometry x="1206.5" y="115" width="60" height="30" as="geometry" />
        </mxCell>
        <mxCell id="ya-5Tr0PbeGaKO2rcUKc-103" value="&lt;font style=&quot;font-size: 24px;&quot;&gt;&lt;b&gt;E&lt;/b&gt;&lt;sub&gt;2&lt;/sub&gt;&lt;/font&gt;" style="text;html=1;align=center;verticalAlign=middle;whiteSpace=wrap;rounded=0;" vertex="1" parent="ya-5Tr0PbeGaKO2rcUKc-115">
          <mxGeometry x="1260.5" y="205" width="60" height="30" as="geometry" />
        </mxCell>
        <mxCell id="ya-5Tr0PbeGaKO2rcUKc-104" value="&lt;font face=&quot;Courier New&quot; style=&quot;font-size: 24px;&quot;&gt;&lt;b&gt;&lt;i&gt;i&lt;/i&gt;&lt;/b&gt;&lt;/font&gt;" style="text;html=1;align=center;verticalAlign=middle;whiteSpace=wrap;rounded=0;" vertex="1" parent="ya-5Tr0PbeGaKO2rcUKc-115">
          <mxGeometry x="1365.5" y="80" width="60" height="30" as="geometry" />
        </mxCell>
        <mxCell id="ya-5Tr0PbeGaKO2rcUKc-109" value="&lt;font style=&quot;font-size: 25px;&quot; face=&quot;Times New Roman&quot;&gt;&lt;u&gt;&amp;nbsp; &amp;nbsp;Spéciation&amp;nbsp; &amp;nbsp;&lt;/u&gt;&lt;/font&gt;" style="text;html=1;align=center;verticalAlign=middle;whiteSpace=wrap;rounded=0;" vertex="1" parent="ya-5Tr0PbeGaKO2rcUKc-115">
          <mxGeometry x="173.5" width="171" height="30" as="geometry" />
        </mxCell>
        <mxCell id="ya-5Tr0PbeGaKO2rcUKc-110" value="&lt;font style=&quot;font-size: 25px;&quot; face=&quot;Times New Roman&quot;&gt;&lt;u&gt;&amp;nbsp; &amp;nbsp;Duplication&amp;nbsp; &amp;nbsp;&lt;/u&gt;&lt;/font&gt;" style="text;html=1;align=center;verticalAlign=middle;whiteSpace=wrap;rounded=0;" vertex="1" parent="ya-5Tr0PbeGaKO2rcUKc-115">
          <mxGeometry x="734.75" width="240.5" height="30" as="geometry" />
        </mxCell>
        <mxCell id="ya-5Tr0PbeGaKO2rcUKc-111" value="&lt;font face=&quot;Times New Roman&quot;&gt;&lt;span style=&quot;font-size: 25px;&quot;&gt;&lt;u&gt;&amp;nbsp; &amp;nbsp;Perte&amp;nbsp; &amp;nbsp;&lt;/u&gt;&lt;/span&gt;&lt;/font&gt;" style="text;html=1;align=center;verticalAlign=middle;whiteSpace=wrap;rounded=0;" vertex="1" parent="ya-5Tr0PbeGaKO2rcUKc-115">
          <mxGeometry x="1300.5" width="190" height="30" as="geometry" />
        </mxCell>
        <mxCell id="ya-5Tr0PbeGaKO2rcUKc-214" value="&lt;font style=&quot;font-size: 24px;&quot;&gt;&lt;b&gt;E&lt;/b&gt;&lt;sub&gt;2&lt;/sub&gt;&lt;/font&gt;" style="text;html=1;align=center;verticalAlign=middle;whiteSpace=wrap;rounded=0;" vertex="1" parent="1">
          <mxGeometry x="182" y="2664" width="60" height="30" as="geometry" />
        </mxCell>
        <mxCell id="ya-5Tr0PbeGaKO2rcUKc-215" value="&lt;font style=&quot;font-size: 24px;&quot;&gt;&lt;b&gt;E&lt;/b&gt;&lt;sub&gt;3&lt;/sub&gt;&lt;/font&gt;" style="text;html=1;align=center;verticalAlign=middle;whiteSpace=wrap;rounded=0;" vertex="1" parent="1">
          <mxGeometry x="564" y="2664" width="60" height="30" as="geometry" />
        </mxCell>
        <mxCell id="ya-5Tr0PbeGaKO2rcUKc-219" value="" style="endArrow=classic;html=1;rounded=0;" edge="1" parent="1">
          <mxGeometry width="50" height="50" relative="1" as="geometry">
            <mxPoint x="536" y="2570" as="sourcePoint" />
            <mxPoint x="536" y="2640" as="targetPoint" />
          </mxGeometry>
        </mxCell>
        <mxCell id="ya-5Tr0PbeGaKO2rcUKc-159" value="" style="rounded=0;whiteSpace=wrap;html=1;strokeWidth=2;" vertex="1" parent="1">
          <mxGeometry x="358" y="2420" width="82" height="40" as="geometry" />
        </mxCell>
        <mxCell id="ya-5Tr0PbeGaKO2rcUKc-160" value="" style="endArrow=none;html=1;rounded=0;entryX=1;entryY=0.5;entryDx=0;entryDy=0;strokeWidth=3;" edge="1" parent="1" target="ya-5Tr0PbeGaKO2rcUKc-159">
          <mxGeometry width="50" height="50" relative="1" as="geometry">
            <mxPoint x="520" y="2440" as="sourcePoint" />
            <mxPoint x="830" y="2550" as="targetPoint" />
          </mxGeometry>
        </mxCell>
        <mxCell id="ya-5Tr0PbeGaKO2rcUKc-161" value="" style="endArrow=none;html=1;rounded=0;strokeWidth=3;exitX=0;exitY=0.5;exitDx=0;exitDy=0;" edge="1" parent="1" source="ya-5Tr0PbeGaKO2rcUKc-159">
          <mxGeometry width="50" height="50" relative="1" as="geometry">
            <mxPoint x="310" y="2450" as="sourcePoint" />
            <mxPoint x="280" y="2440" as="targetPoint" />
          </mxGeometry>
        </mxCell>
        <mxCell id="ya-5Tr0PbeGaKO2rcUKc-162" style="edgeStyle=orthogonalEdgeStyle;rounded=0;orthogonalLoop=1;jettySize=auto;html=1;entryX=0.5;entryY=1;entryDx=0;entryDy=0;exitX=0.5;exitY=1;exitDx=0;exitDy=0;endArrow=classic;endFill=1;startArrow=classic;startFill=1;curved=1;strokeColor=#000099;" edge="1" parent="1" source="ya-5Tr0PbeGaKO2rcUKc-163" target="ya-5Tr0PbeGaKO2rcUKc-166">
          <mxGeometry relative="1" as="geometry">
            <Array as="points">
              <mxPoint x="283" y="2620" />
              <mxPoint x="523" y="2620" />
            </Array>
          </mxGeometry>
        </mxCell>
        <mxCell id="ya-5Tr0PbeGaKO2rcUKc-163" value="" style="rounded=0;whiteSpace=wrap;html=1;strokeWidth=2;" vertex="1" parent="1">
          <mxGeometry x="242" y="2520" width="82" height="40" as="geometry" />
        </mxCell>
        <mxCell id="ya-5Tr0PbeGaKO2rcUKc-164" value="" style="endArrow=none;html=1;rounded=0;entryX=1;entryY=0.5;entryDx=0;entryDy=0;strokeWidth=3;" edge="1" parent="1" target="ya-5Tr0PbeGaKO2rcUKc-163">
          <mxGeometry width="50" height="50" relative="1" as="geometry">
            <mxPoint x="359" y="2540" as="sourcePoint" />
            <mxPoint x="714" y="2650" as="targetPoint" />
          </mxGeometry>
        </mxCell>
        <mxCell id="ya-5Tr0PbeGaKO2rcUKc-165" value="" style="endArrow=none;html=1;rounded=0;strokeWidth=3;exitX=0;exitY=0.5;exitDx=0;exitDy=0;" edge="1" parent="1" source="ya-5Tr0PbeGaKO2rcUKc-163">
          <mxGeometry width="50" height="50" relative="1" as="geometry">
            <mxPoint x="194" y="2550" as="sourcePoint" />
            <mxPoint x="199" y="2540" as="targetPoint" />
          </mxGeometry>
        </mxCell>
        <mxCell id="ya-5Tr0PbeGaKO2rcUKc-166" value="" style="rounded=0;whiteSpace=wrap;html=1;strokeWidth=2;" vertex="1" parent="1">
          <mxGeometry x="482" y="2520" width="82" height="40" as="geometry" />
        </mxCell>
        <mxCell id="ya-5Tr0PbeGaKO2rcUKc-167" value="" style="endArrow=none;html=1;rounded=0;entryX=1;entryY=0.5;entryDx=0;entryDy=0;strokeWidth=3;" edge="1" parent="1" target="ya-5Tr0PbeGaKO2rcUKc-166">
          <mxGeometry width="50" height="50" relative="1" as="geometry">
            <mxPoint x="599" y="2540" as="sourcePoint" />
            <mxPoint x="954" y="2650" as="targetPoint" />
          </mxGeometry>
        </mxCell>
        <mxCell id="ya-5Tr0PbeGaKO2rcUKc-168" value="" style="endArrow=none;html=1;rounded=0;strokeWidth=3;exitX=0;exitY=0.5;exitDx=0;exitDy=0;" edge="1" parent="1" source="ya-5Tr0PbeGaKO2rcUKc-166">
          <mxGeometry width="50" height="50" relative="1" as="geometry">
            <mxPoint x="434" y="2550" as="sourcePoint" />
            <mxPoint x="439" y="2540" as="targetPoint" />
          </mxGeometry>
        </mxCell>
        <mxCell id="ya-5Tr0PbeGaKO2rcUKc-169" value="" style="endArrow=classic;html=1;rounded=0;" edge="1" parent="1">
          <mxGeometry width="50" height="50" relative="1" as="geometry">
            <mxPoint x="380" y="2470" as="sourcePoint" />
            <mxPoint x="310" y="2510" as="targetPoint" />
          </mxGeometry>
        </mxCell>
        <mxCell id="ya-5Tr0PbeGaKO2rcUKc-170" value="" style="endArrow=classic;html=1;rounded=0;" edge="1" parent="1">
          <mxGeometry width="50" height="50" relative="1" as="geometry">
            <mxPoint x="420" y="2470" as="sourcePoint" />
            <mxPoint x="500" y="2510" as="targetPoint" />
          </mxGeometry>
        </mxCell>
        <mxCell id="ya-5Tr0PbeGaKO2rcUKc-171" value="&lt;font style=&quot;font-size: 24px;&quot;&gt;&lt;b&gt;E&lt;/b&gt;&lt;sub&gt;1&lt;/sub&gt;&lt;/font&gt;" style="text;html=1;align=center;verticalAlign=middle;whiteSpace=wrap;rounded=0;" vertex="1" parent="1">
          <mxGeometry x="210" y="2425" width="60" height="30" as="geometry" />
        </mxCell>
        <mxCell id="ya-5Tr0PbeGaKO2rcUKc-172" value="&lt;font style=&quot;font-size: 24px;&quot;&gt;&lt;b&gt;E&lt;/b&gt;&lt;sub&gt;2&lt;/sub&gt;&lt;/font&gt;" style="text;html=1;align=center;verticalAlign=middle;whiteSpace=wrap;rounded=0;" vertex="1" parent="1">
          <mxGeometry x="140" y="2525" width="60" height="30" as="geometry" />
        </mxCell>
        <mxCell id="ya-5Tr0PbeGaKO2rcUKc-173" value="&lt;font style=&quot;font-size: 24px;&quot;&gt;&lt;b&gt;E&lt;/b&gt;&lt;sub&gt;3&lt;/sub&gt;&lt;/font&gt;" style="text;html=1;align=center;verticalAlign=middle;whiteSpace=wrap;rounded=0;" vertex="1" parent="1">
          <mxGeometry x="600" y="2525" width="60" height="30" as="geometry" />
        </mxCell>
        <mxCell id="ya-5Tr0PbeGaKO2rcUKc-174" value="&lt;span style=&quot;font-size: 24px;&quot;&gt;&lt;i&gt;&lt;font face=&quot;Courier New&quot;&gt;&lt;b&gt;i&lt;/b&gt;&lt;/font&gt;&lt;/i&gt;&lt;/span&gt;" style="text;html=1;align=center;verticalAlign=middle;whiteSpace=wrap;rounded=0;" vertex="1" parent="1">
          <mxGeometry x="369" y="2390" width="60" height="30" as="geometry" />
        </mxCell>
        <mxCell id="ya-5Tr0PbeGaKO2rcUKc-175" value="&lt;font face=&quot;Courier New&quot; style=&quot;font-size: 24px;&quot;&gt;&lt;b style=&quot;&quot;&gt;&lt;i style=&quot;&quot;&gt;i&lt;/i&gt;&lt;/b&gt;&lt;/font&gt;" style="text;html=1;align=center;verticalAlign=middle;whiteSpace=wrap;rounded=0;" vertex="1" parent="1">
          <mxGeometry x="250" y="2490" width="60" height="30" as="geometry" />
        </mxCell>
        <mxCell id="ya-5Tr0PbeGaKO2rcUKc-176" value="&lt;font face=&quot;Courier New&quot; style=&quot;font-size: 24px;&quot;&gt;&lt;b&gt;&lt;i&gt;i&lt;/i&gt;&lt;/b&gt;&lt;/font&gt;" style="text;html=1;align=center;verticalAlign=middle;whiteSpace=wrap;rounded=0;" vertex="1" parent="1">
          <mxGeometry x="493" y="2490" width="60" height="30" as="geometry" />
        </mxCell>
        <mxCell id="ya-5Tr0PbeGaKO2rcUKc-177" value="&lt;font color=&quot;#000099&quot; face=&quot;Times New Roman&quot; style=&quot;font-size: 24px;&quot;&gt;gènes&lt;/font&gt;" style="text;html=1;align=center;verticalAlign=middle;whiteSpace=wrap;rounded=0;" vertex="1" parent="1">
          <mxGeometry x="325" y="2590" width="160" height="30" as="geometry" />
        </mxCell>
        <mxCell id="ya-5Tr0PbeGaKO2rcUKc-178" value="" style="rounded=0;whiteSpace=wrap;html=1;strokeWidth=2;" vertex="1" parent="1">
          <mxGeometry x="954" y="2420" width="82" height="40" as="geometry" />
        </mxCell>
        <mxCell id="ya-5Tr0PbeGaKO2rcUKc-179" value="" style="endArrow=none;html=1;rounded=0;entryX=1;entryY=0.5;entryDx=0;entryDy=0;strokeWidth=3;" edge="1" parent="1" target="ya-5Tr0PbeGaKO2rcUKc-178">
          <mxGeometry width="50" height="50" relative="1" as="geometry">
            <mxPoint x="1116" y="2440" as="sourcePoint" />
            <mxPoint x="1426" y="2550" as="targetPoint" />
          </mxGeometry>
        </mxCell>
        <mxCell id="ya-5Tr0PbeGaKO2rcUKc-180" value="" style="endArrow=none;html=1;rounded=0;strokeWidth=3;exitX=0;exitY=0.5;exitDx=0;exitDy=0;" edge="1" parent="1" source="ya-5Tr0PbeGaKO2rcUKc-178">
          <mxGeometry width="50" height="50" relative="1" as="geometry">
            <mxPoint x="906" y="2450" as="sourcePoint" />
            <mxPoint x="876" y="2440" as="targetPoint" />
          </mxGeometry>
        </mxCell>
        <mxCell id="ya-5Tr0PbeGaKO2rcUKc-181" style="edgeStyle=orthogonalEdgeStyle;rounded=0;orthogonalLoop=1;jettySize=auto;html=1;entryX=0.5;entryY=1;entryDx=0;entryDy=0;exitX=0.5;exitY=1;exitDx=0;exitDy=0;endArrow=classic;endFill=1;startArrow=classic;startFill=1;curved=1;strokeColor=#000099;" edge="1" parent="1" source="ya-5Tr0PbeGaKO2rcUKc-182" target="ya-5Tr0PbeGaKO2rcUKc-185">
          <mxGeometry relative="1" as="geometry">
            <Array as="points">
              <mxPoint x="879" y="2620" />
              <mxPoint x="1119" y="2620" />
            </Array>
          </mxGeometry>
        </mxCell>
        <mxCell id="ya-5Tr0PbeGaKO2rcUKc-182" value="" style="rounded=0;whiteSpace=wrap;html=1;strokeWidth=2;" vertex="1" parent="1">
          <mxGeometry x="838" y="2520" width="82" height="40" as="geometry" />
        </mxCell>
        <mxCell id="ya-5Tr0PbeGaKO2rcUKc-183" value="" style="endArrow=none;html=1;rounded=0;entryX=1;entryY=0.5;entryDx=0;entryDy=0;strokeWidth=3;" edge="1" parent="1" target="ya-5Tr0PbeGaKO2rcUKc-182">
          <mxGeometry width="50" height="50" relative="1" as="geometry">
            <mxPoint x="955" y="2540" as="sourcePoint" />
            <mxPoint x="1310" y="2650" as="targetPoint" />
          </mxGeometry>
        </mxCell>
        <mxCell id="ya-5Tr0PbeGaKO2rcUKc-184" value="" style="endArrow=none;html=1;rounded=0;strokeWidth=3;exitX=0;exitY=0.5;exitDx=0;exitDy=0;" edge="1" parent="1" source="ya-5Tr0PbeGaKO2rcUKc-182">
          <mxGeometry width="50" height="50" relative="1" as="geometry">
            <mxPoint x="790" y="2550" as="sourcePoint" />
            <mxPoint x="795" y="2540" as="targetPoint" />
          </mxGeometry>
        </mxCell>
        <mxCell id="ya-5Tr0PbeGaKO2rcUKc-185" value="" style="rounded=0;whiteSpace=wrap;html=1;strokeWidth=2;" vertex="1" parent="1">
          <mxGeometry x="1078" y="2520" width="82" height="40" as="geometry" />
        </mxCell>
        <mxCell id="ya-5Tr0PbeGaKO2rcUKc-186" value="" style="endArrow=none;html=1;rounded=0;entryX=1;entryY=0.5;entryDx=0;entryDy=0;strokeWidth=3;" edge="1" parent="1" target="ya-5Tr0PbeGaKO2rcUKc-185">
          <mxGeometry width="50" height="50" relative="1" as="geometry">
            <mxPoint x="1195" y="2540" as="sourcePoint" />
            <mxPoint x="1550" y="2650" as="targetPoint" />
          </mxGeometry>
        </mxCell>
        <mxCell id="ya-5Tr0PbeGaKO2rcUKc-187" value="" style="endArrow=none;html=1;rounded=0;strokeWidth=3;exitX=0;exitY=0.5;exitDx=0;exitDy=0;" edge="1" parent="1" source="ya-5Tr0PbeGaKO2rcUKc-185">
          <mxGeometry width="50" height="50" relative="1" as="geometry">
            <mxPoint x="1030" y="2550" as="sourcePoint" />
            <mxPoint x="1035" y="2540" as="targetPoint" />
          </mxGeometry>
        </mxCell>
        <mxCell id="ya-5Tr0PbeGaKO2rcUKc-188" value="" style="endArrow=classic;html=1;rounded=0;" edge="1" parent="1">
          <mxGeometry width="50" height="50" relative="1" as="geometry">
            <mxPoint x="976" y="2470" as="sourcePoint" />
            <mxPoint x="906" y="2510" as="targetPoint" />
          </mxGeometry>
        </mxCell>
        <mxCell id="ya-5Tr0PbeGaKO2rcUKc-189" value="" style="endArrow=classic;html=1;rounded=0;" edge="1" parent="1">
          <mxGeometry width="50" height="50" relative="1" as="geometry">
            <mxPoint x="1016" y="2470" as="sourcePoint" />
            <mxPoint x="1096" y="2510" as="targetPoint" />
          </mxGeometry>
        </mxCell>
        <mxCell id="ya-5Tr0PbeGaKO2rcUKc-190" value="&lt;font style=&quot;font-size: 24px;&quot;&gt;&lt;b&gt;E&lt;/b&gt;&lt;sub&gt;1&lt;/sub&gt;&lt;/font&gt;" style="text;html=1;align=center;verticalAlign=middle;whiteSpace=wrap;rounded=0;" vertex="1" parent="1">
          <mxGeometry x="806" y="2425" width="60" height="30" as="geometry" />
        </mxCell>
        <mxCell id="ya-5Tr0PbeGaKO2rcUKc-191" value="&lt;font style=&quot;font-size: 24px;&quot;&gt;&lt;b&gt;E&lt;/b&gt;&lt;sub&gt;1&lt;/sub&gt;&lt;/font&gt;" style="text;html=1;align=center;verticalAlign=middle;whiteSpace=wrap;rounded=0;" vertex="1" parent="1">
          <mxGeometry x="736" y="2525" width="60" height="30" as="geometry" />
        </mxCell>
        <mxCell id="ya-5Tr0PbeGaKO2rcUKc-192" value="&lt;font face=&quot;Courier New&quot; style=&quot;font-size: 24px;&quot;&gt;&lt;b&gt;&lt;i&gt;i&lt;/i&gt;&lt;/b&gt;&lt;/font&gt;" style="text;html=1;align=center;verticalAlign=middle;whiteSpace=wrap;rounded=0;" vertex="1" parent="1">
          <mxGeometry x="965" y="2390" width="60" height="30" as="geometry" />
        </mxCell>
        <mxCell id="ya-5Tr0PbeGaKO2rcUKc-193" value="&lt;font face=&quot;Courier New&quot; style=&quot;font-size: 24px;&quot;&gt;&lt;b&gt;&lt;i&gt;i&lt;/i&gt;&lt;/b&gt;&lt;/font&gt;" style="text;html=1;align=center;verticalAlign=middle;whiteSpace=wrap;rounded=0;" vertex="1" parent="1">
          <mxGeometry x="846" y="2490" width="60" height="30" as="geometry" />
        </mxCell>
        <mxCell id="ya-5Tr0PbeGaKO2rcUKc-194" value="&lt;font face=&quot;Courier New&quot; style=&quot;font-size: 24px;&quot;&gt;&lt;b&gt;&lt;i&gt;k&lt;/i&gt;&lt;/b&gt;&lt;/font&gt;" style="text;html=1;align=center;verticalAlign=middle;whiteSpace=wrap;rounded=0;" vertex="1" parent="1">
          <mxGeometry x="1089" y="2490" width="60" height="30" as="geometry" />
        </mxCell>
        <mxCell id="ya-5Tr0PbeGaKO2rcUKc-195" value="&lt;font color=&quot;#000099&quot; face=&quot;Times New Roman&quot; style=&quot;font-size: 24px;&quot;&gt;gènes&lt;/font&gt;" style="text;html=1;align=center;verticalAlign=middle;whiteSpace=wrap;rounded=0;" vertex="1" parent="1">
          <mxGeometry x="921" y="2590" width="160" height="30" as="geometry" />
        </mxCell>
        <mxCell id="ya-5Tr0PbeGaKO2rcUKc-196" value="" style="endArrow=none;html=1;rounded=0;entryX=1;entryY=0.5;entryDx=0;entryDy=0;dashed=1;strokeWidth=3;dashPattern=1 2;" edge="1" parent="1" target="ya-5Tr0PbeGaKO2rcUKc-182">
          <mxGeometry width="50" height="50" relative="1" as="geometry">
            <mxPoint x="1076" y="2540" as="sourcePoint" />
            <mxPoint x="866" y="2510" as="targetPoint" />
          </mxGeometry>
        </mxCell>
        <mxCell id="ya-5Tr0PbeGaKO2rcUKc-197" value="" style="rounded=0;whiteSpace=wrap;html=1;strokeWidth=2;" vertex="1" parent="1">
          <mxGeometry x="978" y="3005" width="82" height="40" as="geometry" />
        </mxCell>
        <mxCell id="ya-5Tr0PbeGaKO2rcUKc-198" value="" style="endArrow=none;html=1;rounded=0;entryX=1;entryY=0.5;entryDx=0;entryDy=0;strokeWidth=3;" edge="1" parent="1" target="ya-5Tr0PbeGaKO2rcUKc-197">
          <mxGeometry width="50" height="50" relative="1" as="geometry">
            <mxPoint x="1140" y="3025" as="sourcePoint" />
            <mxPoint x="1450" y="3135" as="targetPoint" />
          </mxGeometry>
        </mxCell>
        <mxCell id="ya-5Tr0PbeGaKO2rcUKc-199" value="" style="endArrow=none;html=1;rounded=0;strokeWidth=3;exitX=0;exitY=0.5;exitDx=0;exitDy=0;" edge="1" parent="1" source="ya-5Tr0PbeGaKO2rcUKc-197">
          <mxGeometry width="50" height="50" relative="1" as="geometry">
            <mxPoint x="930" y="3035" as="sourcePoint" />
            <mxPoint x="900" y="3025" as="targetPoint" />
          </mxGeometry>
        </mxCell>
        <mxCell id="ya-5Tr0PbeGaKO2rcUKc-200" value="" style="endArrow=none;html=1;rounded=0;strokeWidth=3;" edge="1" parent="1">
          <mxGeometry width="50" height="50" relative="1" as="geometry">
            <mxPoint x="1081.75" y="3114.5" as="sourcePoint" />
            <mxPoint x="957.25" y="3114.5" as="targetPoint" />
          </mxGeometry>
        </mxCell>
        <mxCell id="ya-5Tr0PbeGaKO2rcUKc-201" value="" style="endArrow=classic;html=1;rounded=0;" edge="1" parent="1">
          <mxGeometry width="50" height="50" relative="1" as="geometry">
            <mxPoint x="1019.5" y="3055" as="sourcePoint" />
            <mxPoint x="1019.5" y="3105" as="targetPoint" />
          </mxGeometry>
        </mxCell>
        <mxCell id="ya-5Tr0PbeGaKO2rcUKc-202" value="&lt;font style=&quot;font-size: 24px;&quot;&gt;&lt;b&gt;E&lt;/b&gt;&lt;sub&gt;1&lt;/sub&gt;&lt;/font&gt;" style="text;html=1;align=center;verticalAlign=middle;whiteSpace=wrap;rounded=0;" vertex="1" parent="1">
          <mxGeometry x="830" y="3010" width="60" height="30" as="geometry" />
        </mxCell>
        <mxCell id="ya-5Tr0PbeGaKO2rcUKc-203" value="&lt;font style=&quot;font-size: 24px;&quot;&gt;&lt;b&gt;E&lt;/b&gt;&lt;sub&gt;2&lt;/sub&gt;&lt;/font&gt;" style="text;html=1;align=center;verticalAlign=middle;whiteSpace=wrap;rounded=0;" vertex="1" parent="1">
          <mxGeometry x="884" y="3100" width="60" height="30" as="geometry" />
        </mxCell>
        <mxCell id="ya-5Tr0PbeGaKO2rcUKc-204" value="&lt;font face=&quot;Courier New&quot; style=&quot;font-size: 24px;&quot;&gt;&lt;b&gt;&lt;i&gt;i&lt;/i&gt;&lt;/b&gt;&lt;/font&gt;" style="text;html=1;align=center;verticalAlign=middle;whiteSpace=wrap;rounded=0;" vertex="1" parent="1">
          <mxGeometry x="989" y="2975" width="60" height="30" as="geometry" />
        </mxCell>
        <mxCell id="ya-5Tr0PbeGaKO2rcUKc-205" value="&lt;font style=&quot;font-size: 25px;&quot; face=&quot;Times New Roman&quot;&gt;&lt;u&gt;&amp;nbsp; &amp;nbsp;Spéciation&amp;nbsp; &amp;nbsp;&lt;/u&gt;&lt;/font&gt;" style="text;html=1;align=center;verticalAlign=middle;whiteSpace=wrap;rounded=0;" vertex="1" parent="1">
          <mxGeometry x="313.5" y="2320" width="171" height="30" as="geometry" />
        </mxCell>
        <mxCell id="ya-5Tr0PbeGaKO2rcUKc-206" value="&lt;font style=&quot;font-size: 25px;&quot; face=&quot;Times New Roman&quot;&gt;&lt;u&gt;&amp;nbsp; &amp;nbsp;Duplication&amp;nbsp; &amp;nbsp;&lt;/u&gt;&lt;/font&gt;" style="text;html=1;align=center;verticalAlign=middle;whiteSpace=wrap;rounded=0;" vertex="1" parent="1">
          <mxGeometry x="874.75" y="2320" width="240.5" height="30" as="geometry" />
        </mxCell>
        <mxCell id="ya-5Tr0PbeGaKO2rcUKc-207" value="&lt;font face=&quot;Times New Roman&quot;&gt;&lt;span style=&quot;font-size: 25px;&quot;&gt;&lt;u&gt;&amp;nbsp; &amp;nbsp;Perte&amp;nbsp; &amp;nbsp;&lt;/u&gt;&lt;/span&gt;&lt;/font&gt;" style="text;html=1;align=center;verticalAlign=middle;whiteSpace=wrap;rounded=0;" vertex="1" parent="1">
          <mxGeometry x="910" y="2910" width="190" height="30" as="geometry" />
        </mxCell>
        <mxCell id="ya-5Tr0PbeGaKO2rcUKc-218" value="" style="endArrow=classic;html=1;rounded=0;" edge="1" parent="1">
          <mxGeometry width="50" height="50" relative="1" as="geometry">
            <mxPoint x="270" y="2570" as="sourcePoint" />
            <mxPoint x="270" y="2640" as="targetPoint" />
          </mxGeometry>
        </mxCell>
        <mxCell id="ya-5Tr0PbeGaKO2rcUKc-220" value="" style="ellipse;whiteSpace=wrap;html=1;aspect=fixed;strokeWidth=2;fillColor=#f5f5f5;fontColor=#333333;strokeColor=#666666;" vertex="1" parent="1">
          <mxGeometry x="242" y="2654" width="50" height="50" as="geometry" />
        </mxCell>
        <mxCell id="ya-5Tr0PbeGaKO2rcUKc-222" value="" style="ellipse;whiteSpace=wrap;html=1;aspect=fixed;strokeWidth=2;fillColor=#f5f5f5;fontColor=#333333;strokeColor=#666666;" vertex="1" parent="1">
          <mxGeometry x="508" y="2654" width="50" height="50" as="geometry" />
        </mxCell>
        <mxCell id="ya-5Tr0PbeGaKO2rcUKc-223" value="&lt;font style=&quot;font-size: 24px;&quot;&gt;&lt;b&gt;E&lt;/b&gt;&lt;sub&gt;1&lt;/sub&gt;&lt;/font&gt;" style="text;html=1;align=center;verticalAlign=middle;whiteSpace=wrap;rounded=0;" vertex="1" parent="1">
          <mxGeometry x="790" y="2670" width="60" height="30" as="geometry" />
        </mxCell>
        <mxCell id="ya-5Tr0PbeGaKO2rcUKc-225" value="" style="endArrow=classic;html=1;rounded=0;" edge="1" parent="1">
          <mxGeometry width="50" height="50" relative="1" as="geometry">
            <mxPoint x="1131.5" y="2570" as="sourcePoint" />
            <mxPoint x="1130" y="2640" as="targetPoint" />
          </mxGeometry>
        </mxCell>
        <mxCell id="ya-5Tr0PbeGaKO2rcUKc-227" value="" style="endArrow=classic;html=1;rounded=0;" edge="1" parent="1">
          <mxGeometry width="50" height="50" relative="1" as="geometry">
            <mxPoint x="865.5" y="2570" as="sourcePoint" />
            <mxPoint x="866" y="2640" as="targetPoint" />
          </mxGeometry>
        </mxCell>
        <mxCell id="ya-5Tr0PbeGaKO2rcUKc-228" value="" style="ellipse;whiteSpace=wrap;html=1;aspect=fixed;strokeWidth=2;fillColor=#f5f5f5;fontColor=#333333;strokeColor=#666666;" vertex="1" parent="1">
          <mxGeometry x="846" y="2654" width="50" height="50" as="geometry" />
        </mxCell>
        <mxCell id="ya-5Tr0PbeGaKO2rcUKc-229" value="" style="ellipse;whiteSpace=wrap;html=1;aspect=fixed;strokeWidth=2;fillColor=#f5f5f5;fontColor=#333333;strokeColor=#666666;" vertex="1" parent="1">
          <mxGeometry x="1105" y="2654" width="50" height="50" as="geometry" />
        </mxCell>
        <mxCell id="ya-5Tr0PbeGaKO2rcUKc-230" value="" style="ellipse;whiteSpace=wrap;html=1;aspect=fixed;strokeWidth=2;fillColor=#f5f5f5;fontColor=#333333;strokeColor=#666666;" vertex="1" parent="1">
          <mxGeometry x="970" y="2415" width="50" height="50" as="geometry" />
        </mxCell>
        <mxCell id="ya-5Tr0PbeGaKO2rcUKc-231" value="" style="ellipse;whiteSpace=wrap;html=1;aspect=fixed;strokeWidth=2;fillColor=#f5f5f5;fontColor=#333333;strokeColor=#666666;" vertex="1" parent="1">
          <mxGeometry x="375" y="2415" width="50" height="50" as="geometry" />
        </mxCell>
        <mxCell id="ya-5Tr0PbeGaKO2rcUKc-233" value="&lt;font color=&quot;#000099&quot; face=&quot;Times New Roman&quot; style=&quot;font-size: 24px;&quot;&gt;paralogues&lt;/font&gt;" style="text;html=1;align=center;verticalAlign=middle;whiteSpace=wrap;rounded=0;" vertex="1" parent="1">
          <mxGeometry x="922" y="2620" width="160" height="30" as="geometry" />
        </mxCell>
        <mxCell id="ya-5Tr0PbeGaKO2rcUKc-234" value="&lt;font color=&quot;#000099&quot; face=&quot;Times New Roman&quot; style=&quot;font-size: 24px;&quot;&gt;orthologues&lt;/font&gt;" style="text;html=1;align=center;verticalAlign=middle;whiteSpace=wrap;rounded=0;" vertex="1" parent="1">
          <mxGeometry x="328" y="2604" width="160" height="60" as="geometry" />
        </mxCell>
        <mxCell id="ya-5Tr0PbeGaKO2rcUKc-235" value="" style="rounded=0;whiteSpace=wrap;html=1;strokeWidth=2;" vertex="1" parent="1">
          <mxGeometry x="380.87" y="3005" width="82" height="40" as="geometry" />
        </mxCell>
        <mxCell id="ya-5Tr0PbeGaKO2rcUKc-236" value="" style="endArrow=none;html=1;rounded=0;entryX=1;entryY=0.5;entryDx=0;entryDy=0;strokeWidth=3;" edge="1" parent="1" target="ya-5Tr0PbeGaKO2rcUKc-235">
          <mxGeometry width="50" height="50" relative="1" as="geometry">
            <mxPoint x="542.87" y="3025" as="sourcePoint" />
            <mxPoint x="852.87" y="3135" as="targetPoint" />
          </mxGeometry>
        </mxCell>
        <mxCell id="ya-5Tr0PbeGaKO2rcUKc-237" value="" style="endArrow=none;html=1;rounded=0;strokeWidth=3;exitX=0;exitY=0.5;exitDx=0;exitDy=0;" edge="1" parent="1" source="ya-5Tr0PbeGaKO2rcUKc-235">
          <mxGeometry width="50" height="50" relative="1" as="geometry">
            <mxPoint x="332.87" y="3035" as="sourcePoint" />
            <mxPoint x="302.87" y="3025" as="targetPoint" />
          </mxGeometry>
        </mxCell>
        <mxCell id="ya-5Tr0PbeGaKO2rcUKc-247" value="&lt;font style=&quot;font-size: 24px;&quot;&gt;&lt;b&gt;E&lt;/b&gt;&lt;sub&gt;1&lt;/sub&gt;&lt;/font&gt;" style="text;html=1;align=center;verticalAlign=middle;whiteSpace=wrap;rounded=0;" vertex="1" parent="1">
          <mxGeometry x="232.87" y="3010" width="60" height="30" as="geometry" />
        </mxCell>
        <mxCell id="ya-5Tr0PbeGaKO2rcUKc-249" value="&lt;font face=&quot;Courier New&quot; style=&quot;font-size: 24px;&quot;&gt;&lt;b&gt;&lt;i&gt;i&lt;/i&gt;&lt;/b&gt;&lt;/font&gt;" style="text;html=1;align=center;verticalAlign=middle;whiteSpace=wrap;rounded=0;" vertex="1" parent="1">
          <mxGeometry x="391.87" y="2975" width="60" height="30" as="geometry" />
        </mxCell>
        <mxCell id="ya-5Tr0PbeGaKO2rcUKc-254" value="&lt;font style=&quot;font-size: 24px;&quot;&gt;&lt;b&gt;E&lt;/b&gt;&lt;sub&gt;1&lt;/sub&gt;&lt;/font&gt;" style="text;html=1;align=center;verticalAlign=middle;whiteSpace=wrap;rounded=0;" vertex="1" parent="1">
          <mxGeometry x="212.87" y="3145" width="60" height="30" as="geometry" />
        </mxCell>
        <mxCell id="ya-5Tr0PbeGaKO2rcUKc-256" value="" style="endArrow=classic;html=1;rounded=0;" edge="1" parent="1">
          <mxGeometry width="50" height="50" relative="1" as="geometry">
            <mxPoint x="401.87" y="3055" as="sourcePoint" />
            <mxPoint x="321.87" y="3135" as="targetPoint" />
          </mxGeometry>
        </mxCell>
        <mxCell id="ya-5Tr0PbeGaKO2rcUKc-257" value="" style="ellipse;whiteSpace=wrap;html=1;aspect=fixed;strokeWidth=2;fillColor=#f5f5f5;fontColor=#333333;strokeColor=#666666;" vertex="1" parent="1">
          <mxGeometry x="272.87" y="3135" width="50" height="50" as="geometry" />
        </mxCell>
        <mxCell id="ya-5Tr0PbeGaKO2rcUKc-259" value="" style="ellipse;whiteSpace=wrap;html=1;aspect=fixed;strokeWidth=2;fillColor=#f5f5f5;fontColor=#333333;strokeColor=#666666;" vertex="1" parent="1">
          <mxGeometry x="396.87" y="3000" width="50" height="50" as="geometry" />
        </mxCell>
        <mxCell id="ya-5Tr0PbeGaKO2rcUKc-261" value="" style="endArrow=classic;html=1;rounded=0;" edge="1" parent="1">
          <mxGeometry width="50" height="50" relative="1" as="geometry">
            <mxPoint x="441.87" y="3055" as="sourcePoint" />
            <mxPoint x="521.87" y="3145" as="targetPoint" />
          </mxGeometry>
        </mxCell>
        <mxCell id="ya-5Tr0PbeGaKO2rcUKc-262" value="" style="ellipse;whiteSpace=wrap;html=1;aspect=fixed;strokeWidth=2;fillColor=#f5f5f5;fontColor=#333333;strokeColor=#666666;" vertex="1" parent="1">
          <mxGeometry x="527.12" y="3135" width="50" height="50" as="geometry" />
        </mxCell>
        <mxCell id="ya-5Tr0PbeGaKO2rcUKc-264" value="" style="endArrow=classic;html=1;rounded=0;" edge="1" parent="1">
          <mxGeometry width="50" height="50" relative="1" as="geometry">
            <mxPoint x="421.87" y="3055" as="sourcePoint" />
            <mxPoint x="421.87" y="3135" as="targetPoint" />
          </mxGeometry>
        </mxCell>
        <mxCell id="ya-5Tr0PbeGaKO2rcUKc-265" value="" style="ellipse;whiteSpace=wrap;html=1;aspect=fixed;strokeWidth=2;fillColor=#f5f5f5;fontColor=#333333;strokeColor=#666666;" vertex="1" parent="1">
          <mxGeometry x="398.87" y="3145" width="50" height="50" as="geometry" />
        </mxCell>
        <mxCell id="ya-5Tr0PbeGaKO2rcUKc-266" value="&lt;font face=&quot;Times New Roman&quot;&gt;&lt;span style=&quot;font-size: 25px;&quot;&gt;&lt;u&gt;&amp;nbsp; &amp;nbsp;Création&amp;nbsp; &amp;nbsp;&lt;/u&gt;&lt;/span&gt;&lt;/font&gt;" style="text;html=1;align=center;verticalAlign=middle;whiteSpace=wrap;rounded=0;" vertex="1" parent="1">
          <mxGeometry x="335.01" y="2910" width="171" height="30" as="geometry" />
        </mxCell>
        <mxCell id="ya-5Tr0PbeGaKO2rcUKc-270" value="" style="endArrow=classic;startArrow=classic;html=1;rounded=0;exitX=0.5;exitY=1;exitDx=0;exitDy=0;entryX=0.5;entryY=1;entryDx=0;entryDy=0;strokeColor=#CC0066;" edge="1" parent="1" source="ya-5Tr0PbeGaKO2rcUKc-220" target="ya-5Tr0PbeGaKO2rcUKc-222">
          <mxGeometry width="50" height="50" relative="1" as="geometry">
            <mxPoint x="274.83" y="2710.9999999999995" as="sourcePoint" />
            <mxPoint x="540.83" y="2710.9999999999995" as="targetPoint" />
            <Array as="points">
              <mxPoint x="400" y="2780" />
            </Array>
          </mxGeometry>
        </mxCell>
        <mxCell id="ya-5Tr0PbeGaKO2rcUKc-271" value="&lt;font color=&quot;#cc0066&quot; face=&quot;Times New Roman&quot; style=&quot;font-size: 24px;&quot;&gt;transcrits orthologues&lt;/font&gt;" style="text;html=1;align=center;verticalAlign=middle;whiteSpace=wrap;rounded=0;" vertex="1" parent="1">
          <mxGeometry x="318" y="2780" width="160" height="60" as="geometry" />
        </mxCell>
        <mxCell id="ya-5Tr0PbeGaKO2rcUKc-272" value="" style="endArrow=classic;startArrow=classic;html=1;rounded=0;entryX=0.5;entryY=1;entryDx=0;entryDy=0;strokeColor=#CC0066;exitX=0.5;exitY=1;exitDx=0;exitDy=0;" edge="1" parent="1" source="ya-5Tr0PbeGaKO2rcUKc-228" target="ya-5Tr0PbeGaKO2rcUKc-229">
          <mxGeometry width="50" height="50" relative="1" as="geometry">
            <mxPoint x="890" y="2710" as="sourcePoint" />
            <mxPoint x="1136.4" y="2710" as="targetPoint" />
            <Array as="points">
              <mxPoint x="1000" y="2780" />
            </Array>
          </mxGeometry>
        </mxCell>
        <mxCell id="ya-5Tr0PbeGaKO2rcUKc-273" value="&lt;font color=&quot;#cc0066&quot; face=&quot;Times New Roman&quot; style=&quot;font-size: 24px;&quot;&gt;transcrits orthologues&lt;/font&gt;" style="text;html=1;align=center;verticalAlign=middle;whiteSpace=wrap;rounded=0;" vertex="1" parent="1">
          <mxGeometry x="915" y="2780" width="160" height="60" as="geometry" />
        </mxCell>
        <mxCell id="ya-5Tr0PbeGaKO2rcUKc-274" value="" style="endArrow=classic;startArrow=classic;html=1;rounded=0;exitX=0.5;exitY=1;exitDx=0;exitDy=0;entryX=0.5;entryY=1;entryDx=0;entryDy=0;edgeStyle=isometricEdgeStyle;strokeColor=#CC0066;" edge="1" parent="1" source="ya-5Tr0PbeGaKO2rcUKc-257" target="ya-5Tr0PbeGaKO2rcUKc-262">
          <mxGeometry width="50" height="50" relative="1" as="geometry">
            <mxPoint x="284.90000000000003" y="3195" as="sourcePoint" />
            <mxPoint x="550.9" y="3195" as="targetPoint" />
            <Array as="points">
              <mxPoint x="365.99" y="3225" />
            </Array>
          </mxGeometry>
        </mxCell>
        <mxCell id="ya-5Tr0PbeGaKO2rcUKc-275" value="&lt;font color=&quot;#cc0066&quot; face=&quot;Times New Roman&quot; style=&quot;font-size: 24px;&quot;&gt;transcrits paralogues&lt;/font&gt;" style="text;html=1;align=center;verticalAlign=middle;whiteSpace=wrap;rounded=0;" vertex="1" parent="1">
          <mxGeometry x="348" y="3255" width="160" height="60" as="geometry" />
        </mxCell>
        <mxCell id="ya-5Tr0PbeGaKO2rcUKc-276" value="" style="endArrow=classic;html=1;rounded=0;entryX=0.5;entryY=1;entryDx=0;entryDy=0;strokeColor=#CC0066;" edge="1" parent="1" target="ya-5Tr0PbeGaKO2rcUKc-265">
          <mxGeometry width="50" height="50" relative="1" as="geometry">
            <mxPoint x="424" y="3260" as="sourcePoint" />
            <mxPoint x="905.99" y="2785" as="targetPoint" />
          </mxGeometry>
        </mxCell>
        <mxCell id="ya-5Tr0PbeGaKO2rcUKc-280" value="" style="endArrow=none;dashed=1;html=1;strokeWidth=2;rounded=0;" edge="1" parent="1">
          <mxGeometry width="50" height="50" relative="1" as="geometry">
            <mxPoint x="433" y="3100" as="sourcePoint" />
            <mxPoint x="473" y="3100" as="targetPoint" />
          </mxGeometry>
        </mxCell>
      </root>
    </mxGraphModel>
  </diagram>
</mxfile>
